<!-- Generator: Adobe Illustrator 21.1.0, SVG Export Plug-In  -->
<svg version="1.1"
	 xmlns="http://www.w3.org/2000/svg" xmlns:xlink="http://www.w3.org/1999/xlink" xmlns:a="http://ns.adobe.com/AdobeSVGViewerExtensions/3.0/"
	 x="0px" y="0px" width="492.88px" height="652.132px" viewBox="0 0 492.88 652.132"
	 style="overflow:scroll;enable-background:new 0 0 492.88 652.132;" xml:space="preserve">
<defs>
</defs>
<g>
	<g>
		<path d="M5.306,113.013c2.997-32.922,2.9-66.021-0.292-98.925c-1.553,0.421-3.106,0.841-4.659,1.262
			c9.779,13.286,19.558,26.572,29.338,39.858c4.889,6.643,9.755,13.304,14.669,19.929c2.71,3.654,5.838,7.465,10.899,6.669
			c4.807-0.757,8.046-5.257,10.453-9.076c4.531-7.191,8.716-14.627,13.067-21.928c8.376-14.057,16.752-28.113,25.128-42.17
			c-1.439,0-2.878,0-4.317,0c5.871,12.911,12.02,25.693,18.481,38.319c3.083,6.024,6.21,12.032,9.456,17.97
			c2.16,3.952,4.748,8.336,9.003,10.32c10.083,4.703,17.325-9.001,22.256-15.33c8.844-11.35,17.687-22.699,26.531-34.049
			c-1.393-0.368-2.786-0.735-4.178-1.103c5.37,16.483,11.937,32.518,19.66,48.038c0.711,1.428,2.874,1.619,3.926,0.506
			c21.764-23.009,43.528-46.018,65.292-69.027c-1.423-0.589-2.845-1.179-4.268-1.768c2.376,37.833,4.082,75.705,5.117,113.598
			c0.833-0.833,1.667-1.667,2.5-2.5c-60.445-3.757-124.156-3.208-180.856,20.719c-15.724,6.636-30.56,15.104-44.149,25.437
			c-2.528,1.922-0.04,6.267,2.524,4.317c48.745-37.067,110.983-46.796,170.75-47.129c17.258-0.096,34.509,0.584,51.731,1.655
			c1.324,0.082,2.535-1.212,2.5-2.5c-1.035-37.894-2.74-75.765-5.117-113.598c-0.129-2.059-2.697-3.429-4.268-1.768
			c-21.764,23.009-43.528,46.018-65.292,69.027c1.309,0.169,2.618,0.337,3.926,0.506c-7.533-15.138-13.919-30.767-19.156-46.844
			c-0.519-1.594-2.942-2.689-4.178-1.103c-7.236,9.286-14.471,18.572-21.707,27.858c-3.618,4.643-7.23,9.291-10.854,13.929
			c-3.807,4.873-8.479,10.249-13.92,3.715c-3.383-4.062-5.559-9.313-8.009-13.963c-2.704-5.133-5.359-10.292-7.963-15.477
			c-5.354-10.658-10.483-21.425-15.42-32.282c-0.805-1.77-3.433-1.484-4.317,0c-7.036,11.807-14.072,23.615-21.108,35.422
			c-3.518,5.904-7.036,11.807-10.554,17.711c-3.087,5.181-5.871,12.092-10.538,16.049c-6.064,5.14-12.136-7.329-15.166-11.446
			c-4.107-5.58-8.215-11.16-12.322-16.74c-8.41-11.426-16.82-22.852-25.23-34.278c-1.294-1.758-4.925-1.483-4.659,1.262
			c3.192,32.904,3.289,66.003,0.292,98.925C0.014,116.216,5.016,116.197,5.306,113.013L5.306,113.013z"/>
	</g>
</g>
<g>
	<g>
		<path d="M45.934,245.857c-10.457,51.152,6.945,108.628,55.435,133.84c23.183,12.054,49.265,13.953,73.982,5.534
			c25.146-8.565,48.914-24.05,69.459-40.705c18.933-15.348,36.155-34.111,45.621-56.858c9.113-21.898,9.665-46.041,0.19-67.898
			c-9.025-20.819-26.143-38.39-46.994-47.462c-23.855-10.379-50.576-7.864-74.153,2.079c-26.341,11.109-47.729,30.679-66.736,51.584
			c-17.649,19.41-38.777,41.022-45.172,67.293c-1.516,6.228-2,12.586-1.446,18.97c0.276,3.181,5.279,3.21,5,0
			c-2.329-26.835,16.003-49.194,32.446-68.299c17.387-20.202,35.674-40.418,58.399-54.749
			c21.774-13.732,48.691-22.521,74.516-17.159c21.326,4.428,40.139,18.173,52.15,36.18c12.415,18.615,16.964,41.019,11.922,62.894
			c-5.182,22.483-19.053,41.776-35.391,57.615c-17.317,16.788-37.775,30.625-59.037,41.916
			c-23.218,12.329-48.61,19.091-74.527,11.78c-26.313-7.423-48.38-26.349-60.813-50.545c-13.312-25.907-15.814-56.387-10.03-84.678
			C51.398,244.046,46.58,242.702,45.934,245.857L45.934,245.857z"/>
	</g>
</g>
<g>
	<g>
		<path d="M146.136,305.811c-0.188,0.382-0.259,0.479-0.267,0.482c-0.393,0.157-1.134-0.122-1.45-0.276
			c-0.371-0.181-1.368-0.735-1.104-1.255c-1.309,0.169-2.618,0.337-3.926,0.506c2.264,1.848,2.072,6.283-0.978,7.315
			c0.642,0.084,1.284,0.168,1.926,0.252c0.249,0.175-0.006-0.346,0.478-0.439c3.156-0.607,1.82-5.427-1.329-4.821
			c-6.759,1.3-3.975,13.287,2.578,8.715c4.613-3.219,5.329-10.909,0.86-14.556c-1.163-0.949-3.134-1.054-3.926,0.506
			c-3.475,6.841,8.098,12.909,11.456,6.096C151.871,305.458,147.56,302.921,146.136,305.811L146.136,305.811z"/>
	</g>
</g>
<g>
	<g>
		<path d="M188.894,270.645c-1.502,2.326-3.005,4.651-4.507,6.977c1.439,0.841,2.878,1.682,4.317,2.524
			c0.222-0.469,0.254-0.433,0.775-0.431c0.637,0.002,0.695,0.554,0.782,0.177c-0.102,0.439-1.184,0.747-1.437,0.319
			c-1.64-2.766-5.964-0.253-4.317,2.524c2.724,4.595,10.847,2.707,10.755-2.842c-0.091-5.462-8.577-7.125-10.875-2.27
			c-1.366,2.886,2.55,5.26,4.317,2.524c1.502-2.326,3.005-4.651,4.507-6.977C194.963,270.458,190.636,267.949,188.894,270.645
			L188.894,270.645z"/>
	</g>
</g>
<g>
	<g>
		<path d="M175.546,351.303c-4.378,1.906-6.389,6.784-4.737,11.245c0.39,1.053,1.241,1.826,2.411,1.835
			c18.073,0.152,32.46-17.296,29.409-34.956c-0.547-3.165-5.366-1.823-4.821,1.329c2.511,14.532-9.993,28.749-24.587,28.626
			c0.804,0.612,1.607,1.224,2.411,1.835c-0.943-2.547,0.013-4.543,2.439-5.599C181.012,354.339,178.47,350.03,175.546,351.303
			L175.546,351.303z"/>
	</g>
</g>
<g>
	<g>
		<path d="M286.537,312.004c3.217,0,3.223-5,0-5C283.32,307.004,283.314,312.004,286.537,312.004L286.537,312.004z"/>
	</g>
</g>
<g>
	<g>
		<path d="M286.797,314.23c45.24-5.823,95.497-4.023,135.286,20.781c4.783,2.982,9.37,6.278,13.678,9.913
			c4.488,3.786,10.215,8.219,12.918,13.502c6.429,12.567-15.208,23.092-24.251,26.219c-22.445,7.761-47.415,3.675-69.95-1.508
			c-31.979-7.354-63.667-16.231-95.446-24.405c-3.118-0.802-4.448,4.019-1.329,4.821c31.279,8.046,62.474,16.677,93.919,24.05
			c24.221,5.679,51.473,10.298,75.509,1.372c9.931-3.688,22.395-10.361,26.601-20.74c4.652-11.481-7.227-20.841-15-27.317
			c-18.88-15.73-42.046-25.264-65.999-30.065c-28.259-5.664-57.45-5.29-85.936-1.623C283.65,309.635,283.61,314.64,286.797,314.23
			L286.797,314.23z"/>
	</g>
</g>
<g>
	<g>
		<path d="M137.737,425.235c-17.491,14.679-29.88,35.072-34.696,57.417c-2.776,12.879-2.591,26.005-1.463,39.068
			c0.893,10.333,2.195,20.739,5.367,30.652c6.368,19.904,21.853,35.301,44.028,33.195c24.225-2.3,40.845-21.495,51.94-41.518
			c14.491-26.151,23.249-55.202,26.35-84.896c0.273-2.613-3.448-3.195-4.659-1.262c-1.453,2.319-2.905,4.639-4.358,6.958
			c-1.713,2.735,2.611,5.247,4.317,2.524c1.453-2.319,2.905-4.639,4.358-6.958c-1.553-0.421-3.106-0.841-4.659-1.262
			c-2.518,24.114-8.968,47.812-19.258,69.78c-9.346,19.954-22.314,42.344-44.562,49.583c-10.544,3.431-22.329,3.178-31.847-2.958
			c-8.009-5.164-13.068-13.717-16.161-22.533c-3.116-8.883-4.597-18.25-5.514-27.589c-1.2-12.228-1.929-24.677,0.07-36.863
			c3.829-23.346,16.199-44.628,34.283-59.804C143.74,426.7,140.187,423.179,137.737,425.235L137.737,425.235z"/>
	</g>
</g>
<g>
	<g>
		<path d="M150.691,564.062c-17.672,14.398-10.618,43.19,10.671,49.396c23.792,6.935,44.646-14.815,40.781-38.314
			c-0.849-5.164-3.1-11.561-8.479-13.567c-4.576-1.706-10.302,0.835-11.02,5.873c-0.448,3.147,4.369,4.507,4.821,1.329
			c0.765-5.373,6.534-1.464,7.892,1.078c1.284,2.404,1.887,5.353,2.148,8.046c0.513,5.297-0.391,10.695-2.54,15.555
			c-4.426,10.013-13.86,16.471-24.884,16.302c-10.126-0.155-19.974-5.982-23.237-15.859c-3.107-9.408-0.316-20.032,7.382-26.305
			C156.722,565.565,153.166,562.046,150.691,564.062L150.691,564.062z"/>
	</g>
</g>
<g>
	<g>
		<path d="M446.801,368.096c-3.782,2.14-5.246,6.548-3.989,10.681c1.616,5.315,7.279,7.762,12.316,8.559
			c11.809,1.868,26.856-1.867,34.89-11.255c8.378-9.79-3.54-22.48-11.382-28.226c-8.984-6.582-21.776-9.856-31.807-3.578
			c-9.473,5.928-14.908,18.572-8.875,28.743c1.64,2.765,5.965,0.253,4.317-2.524c-4.736-7.984,0.156-17.87,7.623-22.22
			c9.457-5.509,21.176-0.753,28.669,5.928c3.699,3.298,8.248,7.972,9.151,13.014c1.121,6.261-6.822,10.345-11.636,12.467
			c-5.088,2.243-10.736,3.329-16.29,3.11c-2.976-0.117-6.358-0.477-9.006-1.984c-2.876-1.637-5.218-6.27-1.457-8.398
			C452.125,370.828,449.608,366.507,446.801,368.096L446.801,368.096z"/>
	</g>
</g>
<g>
	<g>
		<path d="M206.88,582.582c-4.797,21.198-2.913,45.832,14.839,60.713c19.356,16.226,42.823,6.786,63.24-2.002
			c22.533-9.698,44.78-20.785,63.596-36.753c16.816-14.271,30.221-32.514,39.203-52.635c10.15-22.736,14.779-47.683,12.998-72.539
			c-0.164-2.284-2.561-3.138-4.268-1.768c-1.724,1.384-3.449,2.769-5.173,4.153c-2.509,2.014,1.049,5.532,3.536,3.536
			c1.724-1.384,3.449-2.769,5.173-4.153c-1.423-0.589-2.845-1.179-4.268-1.768c2.893,40.383-11.547,81.291-39.322,110.805
			c-15.041,15.983-33.791,27.721-53.362,37.363c-10.305,5.077-20.861,9.776-31.544,14c-10.975,4.339-23.314,8.192-35.029,4.462
			c-25.903-8.248-29.953-39.302-24.798-62.085C212.41,580.778,207.591,579.44,206.88,582.582L206.88,582.582z"/>
	</g>
</g>
<g>
	<g>
		<path d="M473.193,387.909c11.745,13.762,8.359,33.304,2.338,48.829c-6.102,15.733-15.578,30.535-25.596,44.041
			c-20.481,27.612-46.874,50.836-76.729,67.851c-16.834,9.594-34.732,17.116-53.354,22.463c-3.087,0.887-1.774,5.713,1.329,4.821
			c34.922-10.028,67.331-27.753,94.85-51.456c26.761-23.05,51.493-53.152,64.321-86.391c6.736-17.455,9.381-38.457-3.624-53.694
			C474.636,381.922,471.114,385.473,473.193,387.909L473.193,387.909z"/>
	</g>
</g>
<g>
	<g>
		<path d="M328.151,488.92c24.734,5.22,50.457-0.946,70.209-16.685c0.87-0.693,0.883-2.136,0.391-3.03
			c-9.104-16.525-29.793-19.37-46.544-14.931c-9.684,2.566-20.881,6.718-29.147,12.463c-5.708,3.967-11.23,10.503-7.125,17.515
			c1.625,2.775,5.948,0.262,4.317-2.524c-6.631-11.328,30.083-22.071,36.775-23.461c13.742-2.855,30.126,0.246,37.407,13.462
			c0.13-1.01,0.261-2.02,0.391-3.03c-18.264,14.553-42.517,20.217-65.345,15.399C326.341,483.437,325,488.255,328.151,488.92
			L328.151,488.92z"/>
	</g>
</g>
</svg>