<!-- Generator: Adobe Illustrator 21.1.0, SVG Export Plug-In  -->
<svg version="1.1"
	 xmlns="http://www.w3.org/2000/svg" xmlns:xlink="http://www.w3.org/1999/xlink" xmlns:a="http://ns.adobe.com/AdobeSVGViewerExtensions/3.0/"
	 x="0px" y="0px" width="1645.641px" height="475.831px" viewBox="0 0 1645.641 475.831"
	 style="overflow:scroll;enable-background:new 0 0 1645.641 475.831;" xml:space="preserve">
<style type="text/css">
	.st0{fill:#010202;}
</style>
<defs>
</defs>
<g>
	<g>
		<path d="M956.408,400.028c31.167-68.932,61.878-138.07,92.118-207.413c8.583-19.683,17.128-39.382,25.637-59.097
			c-3.494-0.946-6.988-1.893-10.482-2.839c0.529,35.587,0.99,71.175,1.597,106.76c0.583,34.177,1.739,68.39,6.515,102.277
			c2.712,19.243,6.708,38.278,12.388,56.87c2.109,6.901,12.771,4.026,10.848-2.991c-1.268-4.626-2.536-9.253-3.804-13.879
			c-1.912-6.974-12.768-4.013-10.848,2.991c1.268,4.626,2.536,9.253,3.804,13.879c3.616-0.997,7.232-1.994,10.848-2.991
			c-20.008-65.486-18.199-135.077-19.205-202.822c-0.297-20.031-0.595-40.063-0.892-60.094c-0.076-5.134-8.151-8.241-10.482-2.839
			c-29.979,69.457-60.417,138.715-91.324,207.764c-8.773,19.599-17.584,39.181-26.431,58.746
			C943.735,400.896,953.427,406.622,956.408,400.028L956.408,400.028z"/>
	</g>
</g>
<g>
	<g>
		<path d="M1021.72,314.1c-9.97-6.14-21.695-7.835-33.029-4.979c-7.124,1.795-4.026,12.085,2.991,10.848
			c51.929-9.154,105.208-18.471,157.944-10.568c0.499-3.683,0.997-7.366,1.495-11.049c-3.366-0.448-6.732-0.896-10.098-1.344
			c-7.153-0.952-7.083,10.307,0,11.25c3.366,0.448,6.732,0.896,10.098,1.344c6.222,0.828,7.765-10.11,1.495-11.049
			c-54.904-8.228-109.828,1.032-163.925,10.568c0.997,3.616,1.994,7.232,2.991,10.848c8.497-2.141,16.917-0.739,24.36,3.845
			C1022.223,327.621,1027.88,317.894,1021.72,314.1L1021.72,314.1z"/>
	</g>
</g>
<g>
	<g>
		<path d="M1150.671,236.782c7.239,0,7.251-11.25,0-11.25C1143.432,225.532,1143.42,236.782,1150.671,236.782L1150.671,236.782z"/>
	</g>
</g>
<g>
	<g>
		<path d="M1152.836,225.51c-8.874-8.446-13.708-19.715-18.26-30.872c-2.18-5.343-11.505-5.423-11.049,1.495
			c4.536,68.813,8.992,137.888,3.677,206.794c3.75,0,7.5,0,11.25,0c1.798-28.203,2.355-56.46,1.67-84.712
			c-0.175-7.227-11.426-7.254-11.25,0c0.685,28.252,0.128,56.509-1.67,84.712c-0.462,7.252,10.697,7.165,11.25,0
			c5.315-68.905,0.859-137.981-3.677-206.794c-3.683,0.498-7.366,0.997-11.049,1.495c5.291,12.968,10.824,26.005,21.153,35.836
			C1150.124,238.456,1158.093,230.513,1152.836,225.51L1152.836,225.51z"/>
	</g>
</g>
<g>
	<g>
		<path d="M1109.907,203.697c-10.415-8.148,14.479-17.259,19.086-19.051c12.489-4.861,25.422-8.598,38.581-11.139
			c20.944-4.044,45.416-6.626,65.421,2.667c20.984,9.748,28.823,32.649,24.16,54.473c-5.056,23.663-22.067,44.269-39.058,60.714
			c-20.904,20.233-47.927,30.562-77.057,26.884c-7.164-0.905-7.098,10.354,0,11.25c29.602,3.738,58.446-6.377,80.565-26.049
			c10.913-9.706,20.703-21.054,29.144-32.96c8.12-11.452,14.913-24.454,17.558-38.351c4.872-25.598-4.085-52.895-28.372-65.063
			c-23.872-11.96-52.784-9.083-78.039-3.874c-16.954,3.497-33.772,8.873-49.409,16.343c-6.281,3-12.461,7.359-14.889,14.176
			c-2.198,6.172-0.972,13.768,4.354,17.935C1107.59,216.063,1115.607,208.156,1109.907,203.697L1109.907,203.697z"/>
	</g>
</g>
<g>
	<g>
		<path d="M1224.967,307.794c0.241-3.056,0.482-6.112,0.723-9.168c-2.821,1.619-5.643,3.238-8.464,4.857
			c16.998,10.37,28.444,26.777,38.605,43.493c5.138,8.453,10.011,17.067,15.238,25.466c4.954,7.96,10.151,17.716,19.146,21.64
			c2.498,1.09,4.723,0.905,6.817-0.88c3.954-3.371,4.547-8.828,1.916-13.191c-3.734-6.193-13.465-0.544-9.714,5.678
			c-0.052-0.147-0.104-0.295-0.157-0.442c2.272-0.293,4.544-0.586,6.817-0.88c-8.664-3.78-13.624-15.067-18.276-22.781
			c-5.109-8.47-9.988-17.079-15.26-25.451c-10.405-16.522-22.573-32.071-39.452-42.368c-3.883-2.369-8.142,0.773-8.464,4.857
			c-0.241,3.056-0.482,6.112-0.723,9.168C1213.148,315.012,1224.401,314.975,1224.967,307.794L1224.967,307.794z"/>
	</g>
</g>
<g>
	<g>
		<path d="M11.255,223.807c-0.352-19.651,24.004-27.642,40.049-25.286c21.169,3.108,32.093,22.105,49.056,32.815
			c15.809,9.981,35.357,14.443,53.705,9.892c16.666-4.134,34.201-16.586,38.525-34.048c2.232-9.013-0.084-19.315-8.924-23.73
			c-7.421-3.707-16.914-2.311-21.246,5.226c-3.614,6.288,6.103,11.96,9.714,5.678c1.165-2.027,3.585-1.994,5.644-1.247
			c3.163,1.148,4.389,3.995,4.449,7.237c0.15,8.097-6.111,15.664-11.986,20.569c-12.808,10.695-30.51,13.143-46.293,8.76
			c-8.42-2.339-16.341-6.462-23.283-11.758c-7.223-5.511-13.113-12.549-20.187-18.239c-13.626-10.962-31.463-15.362-48.588-11.329
			c-16.492,3.885-32.21,17.417-31.887,35.46C0.134,231.038,11.385,231.061,11.255,223.807L11.255,223.807z"/>
	</g>
</g>
<g>
	<g>
		<path d="M109.673,217.512c-1.985,27.105,2.228,54.594,12.564,79.751c9.73,23.683,25.713,46.311,28.203,72.375
			c1.015,10.629,0.083,21.912-4.865,31.54c-5.743,11.173-16.201,17.914-27.95,21.584c-22.699,7.089-51.352,6.967-68.522-11.804
			c-8.288-9.061-13.782-25.178-4.742-35.645c9.045-10.472,24.688-6.864,30.381,4.902c3.152,6.515,12.857,0.817,9.714-5.678
			c-5.767-11.919-19.087-18.763-32.119-16.185c-13.624,2.695-22.655,14.518-23.673,28.009
			c-2.264,30.013,27.996,49.444,54.451,51.668c27.482,2.31,61.816-7.119,73.694-34.43c11.671-26.835,1.841-55.649-10.05-80.456
			c-7.911-16.503-16.217-32.575-20.905-50.374c-4.755-18.048-6.291-36.658-4.929-55.257
			C121.451,210.289,110.199,210.323,109.673,217.512L109.673,217.512z"/>
	</g>
</g>
<g>
	<g>
		<path d="M101.158,313.017c-3.569-12.942,14.841-14.98,23.264-14.545c13.142,0.679,25.972,4.04,39.079,5.096
			c23.434,1.887,45.693-7.185,57.812-27.991c3.651-6.269-6.068-11.938-9.714-5.678c-5.889,10.11-15.332,17.796-26.671,20.952
			c-13.661,3.802-28.038,0.785-41.704-1.382c-12.428-1.97-26.475-4.563-38.531,0.397c-10.287,4.232-17.479,14.913-14.383,26.142
			C92.232,322.978,103.089,320.018,101.158,313.017L101.158,313.017z"/>
	</g>
</g>
<g>
	<g>
		<path d="M155.954,397.201c29.017,1.728,56.946-13.598,73.49-37.061c7.714-10.939,13.841-25.109,13.908-38.689
			c0.059-11.709-6.341-27.704-20.497-26.371c-1.844,0.174-4.028,0.912-4.857,2.786c-5.886,13.306,5.745,26.209,19.184,27.165
			c15.62,1.111,26.198-14.024,33.122-25.826c-3.238-1.893-6.476-3.785-9.714-5.678c-7.471,14.82-13.422,30.394-17.43,46.508
			c-3.4,13.667-8.056,31.129-0.081,44.093c6.088,9.896,17.749,13.524,28.834,12.023c12.165-1.647,22.437-8.697,28.711-19.187
			c8.405-14.052,9.44-31.082,10.19-47.028c0.317-6.735-8.939-7.089-11.049-1.495c-4.821,12.778-9.359,27.419-5.7,41.088
			c3.837,14.334,17.021,22.636,31.238,24.003c26.497,2.548,51.428-20.219,47.619-47.217c-1.737-12.314-8.9-24.057-19.716-30.437
			c-11.131-6.567-24.729-6.052-36.065-0.293c-11.148,5.663-19.868,16.934-20.587,29.662c-0.874,15.472,13.863,21.656,26.966,23.227
			c27.241,3.268,55.885-14.974,62.563-41.921c1.234-4.981-5.733-10.183-9.402-5.473c-8.911,11.44-19.012,24.523-18.715,39.829
			c0.227,11.683,7.22,24.234,18.727,28.08c13.813,4.618,25.443-5.84,33.036-16.125c9.434-12.779,15.613-27.889,18.236-43.527
			c1.178-7.026-9.406-10.162-10.848-2.991c-4.655,23.154-7.814,46.581-9.458,70.141c3.75,0,7.5,0,11.25,0
			c0.293-15.475,4.657-31.608,13.763-44.312c5.687-7.934,20.662-20.034,30.067-10.727c8.729,8.638,3.335,25.371,4.558,36.223
			c1.345,11.925,7.504,24.323,20.919,25.305c15.165,1.109,25.597-14.522,30.244-26.9c2.548-6.786-8.322-9.717-10.848-2.991
			c-3.122,8.315-16.451,27.654-25.738,14.458c-7.051-10.017-2.272-24.874-3.566-36.164c-1.464-12.77-9.572-24.374-23.511-24.39
			c-12.936-0.015-24.724,9.422-31.84,19.508c-10.129,14.355-14.969,32.588-15.299,49.99c-0.138,7.302,10.75,7.155,11.25,0
			c1.576-22.571,4.597-44.968,9.057-67.15c-3.616-0.997-7.232-1.994-10.848-2.991c-1.959,11.681-5.826,22.819-11.901,33.008
			c-4.502,7.551-12.632,20.848-23.146,19.425c-8.458-1.145-13.161-11.569-12.845-19.185c0.481-11.593,8.593-21.806,15.412-30.559
			c-3.134-1.824-6.268-3.649-9.402-5.473c-4.38,17.678-20.102,30.177-37.669,33.393c-8.432,1.544-18.856,0.862-26.288-3.834
			c-8.914-5.633-0.022-19.328,5.66-24.042c7.082-5.877,17.186-8.574,26.055-5.592c8.434,2.836,14.792,10.424,17.498,18.736
			c6.272,19.267-7.736,37.47-27.21,39.996c-11.332,1.47-24.654-3.194-28.189-15.016c-3.493-11.683,1.417-24.893,5.522-35.772
			c-3.683-0.498-7.366-0.997-11.049-1.495c-0.679,14.437-1.357,30.157-9.47,42.663c-6.028,9.293-18.618,15.411-29.609,11.723
			c-14.86-4.987-10.264-24.53-7.729-35.972c3.781-17.065,9.683-33.541,17.548-49.144c3.238-6.423-6.019-11.976-9.714-5.678
			c-4.424,7.542-9.77,16.787-18.595,19.709c-4.894,1.62-17.446-2.541-14.283-9.692c-1.619,0.929-3.238,1.857-4.857,2.786
			c10.175-0.958,9.712,15.697,8.374,22.115c-2.329,11.171-7.546,21.721-14.913,30.436c-14.921,17.651-37.082,28.457-60.362,27.07
			C148.722,385.52,148.747,396.771,155.954,397.201L155.954,397.201z"/>
	</g>
</g>
<g>
	<g>
		<path d="M504.275,339.162c-0.581,0-1.161,0-1.742,0c-1.442,0-2.957,0.627-3.977,1.648c-0.976,0.976-1.71,2.576-1.648,3.977
			c0.065,1.455,0.543,2.964,1.648,3.977c1.101,1.01,2.453,1.648,3.977,1.648c0.581,0,1.161,0,1.742,0
			c1.442,0,2.957-0.627,3.977-1.648c0.976-0.976,1.71-2.576,1.648-3.977c-0.065-1.455-0.543-2.964-1.648-3.977
			C507.152,339.8,505.799,339.162,504.275,339.162L504.275,339.162z"/>
	</g>
</g>
<g>
	<g>
		<path d="M506.9,340.553c-2.004-1.04,8.225-7.593,9.937-8.096c4.811-1.414,8.572,2.658,11.754,5.666
			c7.637,7.221,15.67,11.957,26.417,12.478c22.572,1.095,39.467-15.776,51.418-32.902c3.975-5.697-4.25-10.408-8.835-6.817
			c-32.958,25.82-62.352,55.678-87.93,88.807c-3.867,5.008,4.821,11.786,8.835,6.817c9.656-11.956,24.284-18.599,39.633-18.454
			c7.396,0.07,14.784,1.764,21.314,5.287c8.269,4.462,15.409,10.201,24.979,11.618c17.129,2.536,34.31-7.473,39.063-24.459
			c2.068-7.391,1.45-16.409-4.047-22.228c-6.123-6.482-16.633-5.848-24.561-3.579c-8.874,2.539-17.226,10.945-14.099,20.884
			c2.701,8.585,13.274,10.876,19.812,5.444c5.574-4.631-2.422-12.552-7.955-7.955c-0.187,0.155-1.104-0.923-1.244-1.761
			c-0.313-1.866,2.047-3.724,3.353-4.523c3.388-2.073,9.324-2.906,13.214-2.303c8.514,1.32,5.18,13.765,2.278,18.551
			c-4.174,6.885-11.553,10.918-19.549,11.132c-9.13,0.244-15.897-4.876-23.391-9.29c-24.679-14.537-58.675-8.702-76.754,13.683
			c2.945,2.272,5.89,4.544,8.834,6.817c24.951-32.317,54.042-61.36,86.171-86.531c-2.945-2.272-5.89-4.544-8.834-6.817
			c-7.011,10.047-15.661,20.296-27.37,24.912c-5.433,2.142-11.551,3.071-17.348,2.113c-6.13-1.013-10.539-4.239-14.945-8.4
			c-8.677-8.193-17.682-12.964-29.076-6.355c-4.995,2.898-10.769,6.915-12.285,12.829c-1.308,5.102,0.818,10.7,5.533,13.146
			C507.64,353.597,513.336,343.892,506.9,340.553L506.9,340.553z"/>
	</g>
</g>
<g>
	<g>
		<path d="M648.383,355.69c-9.783-8.845-26.481-4.439-30.076,8.474c-0.596,2.142,0.341,5.397,2.585,6.352
			c16.213,6.906,33.005-0.303,44.92-12.084c12.632-12.49,19.269-29.745,32.812-41.459c-2.652-2.652-5.303-5.303-7.955-7.955
			c-10.752,11.418-22.157,23.693-26.413,39.215c-3.696,13.478-1.751,29.731,8.905,39.645c10.183,9.475,25.642,11.135,38.469,6.661
			c14.452-5.042,25.03-16.98,32.495-29.929c9.568-16.597,15.662-35.317,18.562-54.206c1.069-6.967-8.977-10.175-10.848-2.991
			c-3.061,11.751-0.582,24.327,6.825,33.977c6.946,9.051,17.19,12.642,27.057,17.516c8.771,4.332,18.033,12.359,9.262,22.105
			c-10.497,11.665-28.053,4.85-40.292,0.31c-6.032-2.238-9.818,7.219-4.334,10.281c14.822,8.278,32.899,5.949,47.079-2.655
			c15.41-9.351,25.223-25.354,32.966-41.152c17.57-35.848,32.676-73.475,43.001-112.069c5.181-19.367,9.002-39.085,11.202-59.015
			c1.342-12.155,5.11-39.464-15.125-37.844c-17.713,1.418-24.28,25.126-26.981,39.217c-4.05,21.133-7.54,42.387-11.297,63.574
			c-8.589,48.438-17.178,96.875-25.767,145.313c3.616,0,7.232,0,10.848,0c-2.347-15.071,2.591-29.974,9.48-43.207
			c6.787-13.038,15.152-25.778,24.174-37.387c7.501-9.652,17.599-19.61,30.694-19.19c10.869,0.348,21.074,7.998,17.669,19.812
			c-2.079,7.211-7.496,13.08-12.739,18.208c-5.421,5.302-11.324,10.043-17.696,14.155c-5.835,3.765-13.624,9.155-20.977,7.77
			c-4.354-0.821-9.396-5.837-4.796-9.523c3.593-2.879,8.92-2.34,12.347,0.384c5.013,3.985,7.219,10.603,8.833,16.563
			c3.402,12.563,5.598,26.066,17.062,34.048c11.098,7.727,26.429,6.908,38.124,1.045c13.816-6.925,22.776-20.784,29.302-34.263
			c3.141-6.489-6.557-12.2-9.714-5.678c-6.788,14.021-16.52,29.629-33.048,32.777c-6.569,1.252-14.082,0.353-19.437-3.935
			c-6.286-5.033-8.162-13.638-9.968-21.062c-3.291-13.526-8.996-31.322-25.38-32.915c-12.607-1.226-26.117,10.108-19.626,23.284
			c3.266,6.63,10.584,10.434,17.778,10.682c8.852,0.305,17.221-4.397,24.454-8.997c13.925-8.856,29.557-21.316,35.552-37.228
			c5.475-14.532-1.865-28.731-15.997-34.109c-13.842-5.268-28.013-0.791-39.055,8.275c-7.082,5.815-12.646,13.314-17.87,20.776
			c-5.781,8.258-11.445,16.646-16.438,25.409c-10.042,17.625-16.763,36.836-13.576,57.295c0.845,5.423,9.905,5.317,10.848,0
			c6.79-38.292,13.58-76.584,20.37-114.876c3.424-19.31,6.848-38.619,10.272-57.929c1.683-9.491,3.366-18.982,5.049-28.473
			c1.367-7.71,2.595-15.575,5.326-22.949c1.645-4.44,7.601-17.495,14.15-15.579c5.323,1.558,3.096,13.658,2.785,17.428
			c-1.491,18.068-4.56,35.969-8.759,53.598c-8.348,35.046-21.106,68.913-35.858,101.729c-7.531,16.753-14.895,35.03-27.969,48.336
			c-11.496,11.7-30.17,19.266-45.613,10.641c-1.445,3.427-2.89,6.854-4.334,10.281c14.389,5.338,31.656,10.686,45.678,1.412
			c10.818-7.154,16.555-21.245,8.775-32.804c-6.534-9.707-18.605-12.818-28.394-18.05c-11.86-6.338-18.561-18.935-15.074-32.323
			c-3.616-0.997-7.232-1.994-10.848-2.991c-2.759,17.97-8.317,35.72-17.428,51.518c-7.46,12.936-18.855,25.634-34.733,26.67
			c-15.719,1.026-26.356-10.241-25.904-25.741c0.507-17.384,13.648-30.994,24.849-42.889c5.014-5.325-2.515-12.66-7.955-7.955
			c-11.581,10.016-18.347,23.775-27.673,35.655c-7.949,10.127-22.689,21.981-36.426,16.129c0.862,2.117,1.723,4.235,2.585,6.352
			c1.242-4.461,7.682-6.756,11.273-3.509C645.787,368.49,653.767,360.558,648.383,355.69L648.383,355.69z"/>
	</g>
</g>
<g>
	<g>
		<path d="M710.436,298.384c1.233-1.213,2.465-2.427,3.698-3.64c2.548-2.508,2.011-7.069-1.138-8.835
			c-1.301-0.729-0.855-2.197-0.471-3.242c0.286-0.777,0.692-0.139,0.152-0.254c0.464,0.099,0.789,0.239,1.17,0.496
			c1.118,0.753,1.205,1.711,0.769,2.85c1.31-1.31,2.619-2.619,3.929-3.929c-2.842,0.606-5.685,1.212-8.527,1.817
			c2.306,2.306,4.613,4.613,6.919,6.919c1.709-6.047-1.584-15.032-9.334-12.657c-6.902,2.115-3.959,12.978,2.991,10.848
			c-0.109,0.021-0.219,0.042-0.328,0.063c-0.946-0.256-1.893-0.512-2.839-0.768c-1.784-0.998-0.862-2.16-1.338-0.477
			c-1.221,4.321,2.824,7.792,6.919,6.919c3.213-0.685,8.604-0.859,11.009-3.264c2.278-2.278,2.601-6.559,1.815-9.524
			c-1.546-5.83-7.111-10.652-13.292-10.476c-12.604,0.358-15.587,18.581-5.224,24.391c-0.38-2.945-0.759-5.89-1.138-8.835
			c-1.233,1.213-2.465,2.427-3.698,3.64C697.313,295.516,705.27,303.47,710.436,298.384L710.436,298.384z"/>
	</g>
</g>
<g>
	<g>
		<path d="M1366.473,55.485c8.389,107.183,6.493,215.122-5.788,321.934c-3.515,30.57-7.919,61.028-13.133,91.354
			c-1.217,7.081,9.622,10.123,10.848,2.991c18.411-107.095,26.574-215.907,24.012-324.55c-0.722-30.613-2.3-61.2-4.69-91.728
			C1377.162,48.314,1365.907,48.254,1366.473,55.485L1366.473,55.485z"/>
	</g>
</g>
<g>
	<g>
		<path d="M1293.033,243.962c79.98-59.484,165.247-116.655,263.589-139.912c27.393-6.478,55.337-10.076,83.496-10.238
			c7.237-0.042,7.252-11.292,0-11.25c-102.633,0.591-197.992,45.719-281.916,101.416c-24.132,16.016-47.611,32.988-70.848,50.27
			C1281.611,238.52,1287.214,248.29,1293.033,243.962L1293.033,243.962z"/>
	</g>
</g>
<g>
	<g>
		<path class="st0" d="M1603.099,42.396c8.635-10.762,15.346-22.489,20.194-35.413c-3.616,0-7.232,0-10.848,0
			c2.114,5.752,1.392,10.189,1.237,16.059c-0.113,4.261,2.128,8.067,5.629,10.442c8.656,5.873,17.728,0.289,24.648-5.422
			c4.259-3.515-0.308-11.353-5.473-9.402c-10.016,3.785-20.119,9.602-24.73,19.772c-4.182,9.224-3.064,20.632,4.507,27.747
			c4.558,4.283,12.22-1.195,8.835-6.817c-5.114-8.492-12.415-17.528-23.552-15.765c-4.936,0.782-8.431,3.87-11.011,8.005
			c-3.322,5.324-6.148,11.021-9.189,16.511c3.494,0.946,6.988,1.893,10.482,2.839c-0.244-5.071,3.683-9,6.253-13.034
			c2.715-4.262,4.576-8.973,4.424-14.1c-0.3-10.136-6.929-18.806-16.371-22.137c-6.841-2.413-9.783,8.452-2.991,10.848
			c6.926,2.443,9.976,10.915,6.67,17.291c-3.68,7.097-9.651,12.504-9.236,21.132c0.258,5.353,7.659,7.937,10.482,2.839
			c1.804-3.258,3.609-6.516,5.413-9.774c1.323-2.389,3.062-7.346,5.503-8.789c5.838-3.45,11.089,5.96,13.408,9.811
			c2.945-2.272,5.89-4.544,8.834-6.817c-4.615-4.337-4.59-11.236-1.534-16.519c3.548-6.133,10.391-9.777,16.793-12.196
			c-1.824-3.134-3.649-6.268-5.473-9.402c-2.056,1.697-4.507,3.937-7.203,4.48c-0.922,0.186-1.876,0.383-2.75-0.139
			c-1.647-0.983-0.732-0.696-0.962-2.211c-0.389-2.566,0.624-5.684,0.399-8.382c-0.283-3.402-1.019-6.661-2.196-9.862
			c-1.965-5.347-8.86-5.299-10.848,0c-4.118,10.977-9.961,21.3-17.301,30.449C1590.655,40.035,1598.566,48.045,1603.099,42.396
			L1603.099,42.396z"/>
	</g>
</g>
</svg>