<!-- Generator: Adobe Illustrator 21.1.0, SVG Export Plug-In  -->
<svg version="1.1"
	 xmlns="http://www.w3.org/2000/svg" xmlns:xlink="http://www.w3.org/1999/xlink" xmlns:a="http://ns.adobe.com/AdobeSVGViewerExtensions/3.0/"
	 x="0px" y="0px" width="4610.194px" height="2716.667px" viewBox="0 0 4610.194 2716.667"
	 style="overflow:scroll;enable-background:new 0 0 4610.194 2716.667;" xml:space="preserve">
<defs>
</defs>
<g>
	<g>
		<path d="M3709.834,2711.905c3.217,0,3.223-5,0-5C3706.617,2706.905,3706.612,2711.905,3709.834,2711.905L3709.834,2711.905z"/>
	</g>
</g>
<g>
	<g>
		<path d="M3690.787,2716.667c3.217,0,3.223-5,0-5C3687.569,2711.667,3687.564,2716.667,3690.787,2716.667L3690.787,2716.667z"/>
	</g>
</g>
<g>
	<g>
		<path d="M3814.844,127.764c1.156-33.268-0.859-66.519-5.924-99.417c-1.393,0.811-2.786,1.622-4.178,2.432
			c10.509,12.717,21.017,25.434,31.525,38.151c5.044,6.104,10.075,12.219,15.132,18.313c3.106,3.743,6.626,7.79,12.031,6.293
			c5.143-1.424,8.01-6.784,10.308-11.134c3.668-6.945,7.272-13.924,10.908-20.885c7.575-14.504,15.151-29.008,22.726-43.511
			c-1.439,0-2.878,0-4.317,0c6.585,12.562,13.44,24.979,20.599,37.223c3.576,6.115,7.142,12.264,10.955,18.235
			c2.301,3.603,5.113,7.626,9.303,9.171c10.408,3.837,16.876-10.376,21.488-17.033c8.194-11.827,16.387-23.655,24.581-35.482
			c-1.523-0.199-3.046-0.398-4.569-0.597c6.284,16.159,13.704,31.811,22.288,46.876c0.745,1.308,2.88,1.744,3.926,0.506
			c20.441-24.192,40.881-48.385,61.322-72.577c-1.423-0.589-2.845-1.179-4.268-1.768c4.493,37.641,8.318,75.357,11.474,113.133
			c0.833-0.833,1.667-1.667,2.5-2.5c-60.738-0.366-124.526,3.766-179.927,30.995c-15.341,7.54-29.66,16.925-42.665,28.018
			c-2.452,2.091,1.099,5.614,3.535,3.536c46.529-39.691,108.467-52.754,168.017-56.345c16.993-1.025,34.019-1.307,51.04-1.204
			c1.269,0.008,2.613-1.154,2.5-2.5c-3.156-37.776-6.981-75.492-11.474-113.133c-0.227-1.901-2.71-3.611-4.268-1.768
			c-20.441,24.192-40.881,48.385-61.322,72.577c1.309,0.169,2.618,0.337,3.927,0.506c-8.369-14.688-15.656-29.925-21.784-45.681
			c-0.796-2.047-3.289-2.446-4.569-0.597c-6.704,9.677-13.408,19.354-20.112,29.031c-3.352,4.838-6.697,9.682-10.056,14.516
			c-1.412,2.032-2.85,4.657-5.001,5.978c-3.331,2.046-6.096,0.603-8.532-1.995c-3.536-3.77-5.924-8.869-8.567-13.27
			c-2.988-4.973-5.927-9.976-8.818-15.006c-5.943-10.341-11.667-20.804-17.205-31.367c-0.853-1.627-3.466-1.631-4.317,0
			c-6.363,12.183-12.727,24.366-19.09,36.55c-3.333,6.382-6.666,12.763-10,19.145c-2.538,4.86-5.157,13.265-9.934,16.408
			c-3.747,2.466-6.111-0.284-8.466-3.113c-2.322-2.789-4.624-5.596-6.936-8.393c-4.413-5.341-8.827-10.682-13.24-16.024
			c-9.037-10.937-18.074-21.873-27.111-32.81c-1.778-2.152-4.511,0.273-4.178,2.432c4.996,32.448,6.885,65.28,5.745,98.088
			C3809.732,130.982,3814.732,130.977,3814.844,127.764L3814.844,127.764z"/>
	</g>
</g>
<g>
	<g>
		<path d="M3895.776,184.452c-35.924,39.633-49.848,100.001-18.421,146.54c15.204,22.516,38.159,36.16,64.858,40.407
			c25.916,4.122,53.643,2.86,79.467-1.542c23.488-4.004,47.009-11.896,65.837-26.91c18.148-14.471,29.877-34.977,32.334-58.111
			c2.366-22.287-3.696-45.749-17.067-63.794c-15.408-20.795-39.694-31.914-64.913-35.247c-30.76-4.065-61.434,3.421-90.542,12.821
			c-23.277,7.517-49.723,15.21-66.863,33.768c-3.955,4.282-7.211,9.094-9.724,14.35c-1.381,2.889,2.928,5.428,4.317,2.524
			c10.342-21.628,33.42-31.917,54.833-39.506c27.06-9.591,55.289-18.805,84.19-19.998c25.8-1.065,53.597,4.705,73.51,22.088
			c16.358,14.279,25.924,35.447,27.506,56.962c1.625,22.094-5.196,43.795-20.113,60.303c-15.13,16.743-36.099,26.641-57.637,32.288
			c-22.915,6.007-46.941,7.69-70.561,7.106c-26.904-0.666-53.515-6.439-73.298-25.84c-19.439-19.064-29.7-46.323-28.878-73.41
			c0.918-30.261,14.566-59.048,34.701-81.262C3901.468,185.608,3897.943,182.061,3895.776,184.452L3895.776,184.452z"/>
	</g>
</g>
<g>
	<g>
		<path d="M3951.426,287.092c-1.021,0.663-2.573-1.9-1.798-2.394c-1.224-0.498-2.448-0.996-3.673-1.494
			c0.978,2.748-1.442,6.384-4.572,5.753c0.582,0.582,1.164,1.164,1.746,1.746c-0.177-0.423-0.25-0.902,0.402-0.687
			c3.063,1.01,4.376-3.817,1.329-4.821c-6.514-2.147-10.075,9.196-2.395,8.826c5.768-0.277,10.255-6.683,8.311-12.147
			c-0.516-1.451-2.224-2.42-3.673-1.494c-6.45,4.121,0.457,15.174,6.845,11.029C3956.639,289.664,3954.135,285.333,3951.426,287.092
			L3951.426,287.092z"/>
	</g>
</g>
<g>
	<g>
		<path d="M4006.135,278.624c-2.478,1.235-4.955,2.471-7.433,3.706c0.841,1.439,1.682,2.878,2.523,4.317
			c0.405-0.273,0.495-0.188,0.904,0.1c0.174,0.123,0.464,0.47,0.483,0.685c0.014,0.166,0.061-0.153,0.027-0.133
			c-0.239,0.139-0.646,0.099-0.959-0.049c-0.117-0.055-0.228-0.138-0.333-0.2c-0.105,0.069-0.168-0.019-0.187-0.261
			c0.085,0.444,0.115,0.44,0.088-0.013c0.018-3.218-4.982-3.222-5,0c-0.029,5.162,7.644,7.817,10.528,3.299
			c3.053-4.781-3.438-10.878-8.075-7.746c-2.669,1.803-0.367,5.759,2.523,4.317c2.478-1.235,4.956-2.471,7.433-3.706
			C4011.539,281.505,4009.009,277.191,4006.135,278.624L4006.135,278.624z"/>
	</g>
</g>
<g>
	<g>
		<path d="M3953.582,341.195c-4.781-0.53-8.868,2.555-9.789,7.254c-0.219,1.116,0.149,2.216,1.149,2.823
			c15.405,9.365,36.799,1.633,43.102-15.09c1.136-3.014-3.695-4.317-4.822-1.329c-5.198,13.789-23.299,19.675-35.757,12.102
			c0.383,0.941,0.766,1.882,1.149,2.823c0.454-2.316,2.63-3.842,4.968-3.583C3956.775,346.549,3956.75,341.546,3953.582,341.195
			L3953.582,341.195z"/>
	</g>
</g>
<g>
	<g>
		<path d="M4068.223,365.995c41.163,17.728,82.582,44.171,104.591,84.533c5.427,9.953,11.159,22.177,12.091,33.642
			c1.221,15.012-20.573,14.611-30.61,13.165c-25.099-3.615-46.09-21.405-63.774-38.346c-23.44-22.455-45.981-45.915-68.909-68.892
			c-2.276-2.281-5.812,1.254-3.535,3.536c22.738,22.787,45.117,46.013,68.32,68.326c18.496,17.786,40.348,36.218,66.569,40.198
			c10.003,1.518,24.136,1.882,32.253-5.336c9.279-8.25,2.799-23.546-0.859-33.122c-8.606-22.528-23.668-41.942-41.62-57.845
			c-21.193-18.773-46.072-33.015-71.992-44.177C4067.823,360.418,4065.273,364.724,4068.223,365.995L4068.223,365.995z"/>
	</g>
</g>
<g>
	<g>
		<path d="M3883.345,385.552c-22.52,3.715-43.588,14.965-59.1,31.744c-8.177,8.845-14.375,19.13-19.699,29.887
			c-5.422,10.954-10.573,22.341-12.93,34.401c-2.11,10.797-1.854,22.221,3.47,32.096c4.688,8.697,12.85,14.816,21.988,18.244
			c23.351,8.76,47.867-1.971,67.608-14.452c23.387-14.787,43.704-33.918,60.182-56.119c1.606-2.164-1.41-4.458-3.42-3.42
			c-2.432,1.255-4.864,2.511-7.296,3.766c-2.86,1.476-0.334,5.793,2.524,4.317c2.432-1.255,4.864-2.511,7.295-3.766
			c-1.14-1.14-2.28-2.28-3.42-3.421c-13.574,18.288-29.958,34.493-48.522,47.703c-18.096,12.876-40.626,26.533-63.799,23.113
			c-9.462-1.396-18.765-5.63-25.072-12.971c-7.621-8.87-8.905-20.994-7.013-32.146c1.883-11.095,6.341-21.577,11.185-31.661
			c4.827-10.048,10.174-19.95,17.365-28.528c15.202-18.135,36.687-30.122,59.984-33.965
			C3887.842,389.851,3886.498,385.032,3883.345,385.552L3883.345,385.552z"/>
	</g>
</g>
<g>
	<g>
		<path d="M3823.748,511.603c-10.669,1.622-19.233,9.729-22.583,19.853c-3.427,10.353-0.125,21.46,7.56,29.006
			c16.981,16.674,44.729,8.902,53.43-12.453c2.122-5.207,3.732-12.521-0.549-17.129c-3.201-3.446-9.04-3.847-12.08-0.058
			c-1.995,2.486,1.521,6.046,3.536,3.536c1.9-2.369,3.808-0.972,5.075,0.699c1.395,1.84,1.284,3.947,0.906,6.126
			c-0.448,2.579-1.453,5.138-2.663,7.447c-2.31,4.406-5.733,8.247-9.823,11.075c-8.599,5.945-19.518,6.799-28.653,1.515
			c-8.716-5.041-14.728-14.929-12.785-25.159c1.907-10.04,9.835-18.097,19.959-19.636
			C3828.248,515.942,3826.901,511.123,3823.748,511.603L3823.748,511.603z"/>
	</g>
</g>
<g>
	<g>
		<path d="M4178.418,493.87c-4.843-0.032-8.594,3.703-9.072,8.515c-0.543,5.478,3.5,10.083,7.554,13.17
			c5.621,4.279,12.336,7.026,19.325,8.007c5.588,0.785,12.796,1.092,17.867-1.896c9.748-5.744,5.241-21.981,1.573-30.043
			c-4.529-9.952-13.919-18.673-25.451-18.213c-11.048,0.441-21.928,8.501-21.903,20.201c0.007,3.217,5.007,3.223,5,0
			c-0.02-9.4,9.429-15.337,18.12-15.218c10.324,0.141,17.79,9.466,20.986,18.433c1.548,4.344,2.639,9.25,2.312,13.882
			c-0.542,7.655-7.414,8.487-13.756,8.287c-6.114-0.193-12.186-1.928-17.471-5.012c-2.28-1.33-4.517-2.868-6.313-4.815
			c-2.33-2.526-5.411-10.342,1.229-10.298C4181.637,498.891,4181.64,493.891,4178.418,493.87L4178.418,493.87z"/>
	</g>
</g>
<g>
	<g>
		<path d="M3862.668,556.192c-14.804,15.64-25.632,37.487-18.334,59.211c7.686,22.877,30.595,27.709,51.843,30.559
			c26.637,3.572,53.859,5.83,80.455,0.697c21.143-4.08,41.337-13.119,58.755-25.735c19.688-14.26,35.87-33.025,46.733-54.79
			c1.047-2.097-0.668-3.98-2.823-3.672c-2.189,0.312-4.378,0.625-6.568,0.937c-3.173,0.453-1.823,5.271,1.329,4.821
			c2.189-0.312,4.379-0.625,6.568-0.937c-0.941-1.224-1.882-2.448-2.823-3.672c-17.731,35.525-50.08,62.975-88.065,74.626
			c-22.711,6.966-46.646,7.395-70.145,5.379c-11.964-1.027-24.046-2.327-35.848-4.576c-10.21-1.946-20.897-5.258-27.976-13.334
			c-17.907-20.43-5.662-48.97,10.436-65.977C3868.416,557.391,3864.886,553.849,3862.668,556.192L3862.668,556.192z"/>
	</g>
</g>
<g>
	<g>
		<path d="M4191.056,524.411c2.973,17.184-8.987,31.824-21.473,42.036c-12.952,10.594-28.559,18.534-43.861,25.123
			c-31.904,13.738-66.769,20.573-101.487,20.152c-19.749-0.24-39.358-2.899-58.468-7.876c-3.116-0.812-4.446,4.01-1.329,4.821
			c35.906,9.351,73.604,10.469,110.062,3.654c18.19-3.4,35.974-8.822,52.984-16.105c16.246-6.956,32.589-15.395,46.24-26.736
			c13.832-11.491,25.409-27.58,22.154-46.398C4195.33,519.917,4190.51,521.258,4191.056,524.411L4191.056,524.411z"/>
	</g>
</g>
<g>
	<g>
		<path d="M4014.806,537.4c18.621,17.103,43.917,24.86,68.924,21.378c1.091-0.152,1.805-1.416,1.835-2.411
			c0.614-20.442-18.115-33.338-36.073-37.484c-9.507-2.195-42.997-9.867-42.852,8.257c0.026,3.216,5.026,3.223,5,0
			c-0.1-12.512,33.881-4.256,39.852-2.594c14.672,4.085,29.576,15.07,29.073,31.82c0.612-0.804,1.224-1.607,1.835-2.411
			c-23.127,3.22-46.888-4.321-64.059-20.092C4015.975,531.691,4012.43,535.218,4014.806,537.4L4014.806,537.4z"/>
	</g>
</g>
<g>
	<g>
		<path d="M1077.353,1416.548c38.153,59.529,61.08,126.976,75.048,195.965c7.046,34.8,11.875,70.004,15.363,105.329
			c3.341,33.845,4.528,67.937,9.187,101.642c4.983,36.045,15.311,71.548,38.892,99.998c6.166,7.439,16.726-3.224,10.607-10.607
			c-20.379-24.588-29.317-56.014-34.109-87.039c-5.091-32.965-5.981-66.503-9.157-99.679
			c-6.701-69.997-18.147-140.155-41.575-206.669c-13.124-37.26-29.972-73.228-51.304-106.511
			C1085.113,1400.875,1072.124,1408.389,1077.353,1416.548L1077.353,1416.548z"/>
	</g>
</g>
<g>
	<g>
		<path d="M1335.594,1436.344c46.413,106.068,81.809,216.968,105.645,330.261c6.795,32.294,12.629,64.785,17.543,97.418
			c1.746-3.075,3.492-6.151,5.238-9.226c-15.088,4.674-31.125,3.247-45.012-4.365c-8.469-4.642-16.047,8.306-7.571,12.952
			c17.293,9.478,37.694,11.725,56.57,5.877c4.215-1.306,5.86-5.095,5.238-9.226c-17.432-115.767-46.766-229.687-87.533-339.437
			c-11.5-30.96-23.928-61.569-37.167-91.825c-1.636-3.74-7.036-4.526-10.261-2.691
			C1334.432,1428.275,1333.98,1432.655,1335.594,1436.344L1335.594,1436.344z"/>
	</g>
</g>
<g>
	<g>
		<path d="M1149.566,1665.393c-22.286,6.159-41.401,22.021-51.074,43.091c-2.317,5.047,0.378,11.242,6.476,11.285
			c60.847,0.43,121.708-5.412,181.393-17.246c59.947-11.885,118.603-29.937,174.907-53.69c31.597-13.33,62.406-28.433,92.27-45.293
			c8.406-4.746,0.855-17.709-7.571-12.952c-52.127,29.429-107.138,53.494-164.143,71.764
			c-56.927,18.246-115.726,30.898-175.167,37.325c-33.767,3.651-67.727,5.331-101.689,5.091c2.159,3.762,4.317,7.524,6.476,11.285
			c8.134-17.716,23.26-30.989,42.11-36.198C1162.845,1677.289,1158.899,1662.813,1149.566,1665.393L1149.566,1665.393z"/>
	</g>
</g>
<g>
	<g>
		<path d="M1667.002,1609.446c13.939,74.432,27.877,148.864,41.816,223.296c1.188,6.343,10.809,7.266,13.708,1.792
			c8.257-15.595,5.858-34.493-5.936-47.588c-6.474-7.188-17.055,3.447-10.607,10.607c7.151,7.94,8.58,19.988,3.591,29.411
			c4.569,0.597,9.139,1.194,13.708,1.792c-13.939-74.432-27.877-148.864-41.816-223.296
			C1679.692,1595.982,1665.233,1599.995,1667.002,1609.446L1667.002,1609.446z"/>
	</g>
</g>
<g>
	<g>
		<path d="M1630.301,1451.92c-7.254-12.828-9.554-27.724-6.307-42.12c-3.075,1.746-6.151,3.492-9.226,5.238
			c18.568,3.436,32.759,20.015,32.536,39.045c1.238-2.159,2.476-4.317,3.715-6.476c-2.273,1.194-5.517,3.347-8.206,2.729
			c1.517,0.348-0.472,1.473,0.236-0.277c-0.527,1.302,9.729-1.097-2.113,2.722c9.15-2.951,5.237-17.439-3.988-14.464
			c-8.725,2.814-11.015,12.768-6.463,20.243c6.337,10.403,19.405,6.57,28.104,1.999c2.329-1.224,3.685-3.918,3.715-6.476
			c0.296-25.217-18.604-48.894-43.548-53.509c-3.837-0.71-8.273,1.015-9.226,5.238c-4.137,18.342-1.445,37.295,7.819,53.679
			C1622.101,1467.893,1635.064,1460.342,1630.301,1451.92L1630.301,1451.92z"/>
	</g>
</g>
<g>
	<g>
		<path d="M1951.562,1167.968c0.429-18.822,7.335-37.067,19.709-51.297c-4.178-1.103-8.357-2.206-12.535-3.309
			c13.68,66.791,29.764,133.084,48.27,198.703c18.505,65.616,39.408,130.556,62.656,194.646
			c13.192,36.368,27.15,72.455,41.831,108.248c1.53,3.731,4.99,6.424,9.226,5.238c3.539-0.991,6.79-5.443,5.238-9.226
			c-25.871-63.079-49.468-127.083-70.678-191.879c-21.209-64.793-40.051-130.36-56.473-196.529
			c-9.318-37.548-17.844-75.289-25.606-113.189c-1.098-5.36-8.937-7.448-12.535-3.309c-15.04,17.296-23.58,38.958-24.103,61.904
			C1936.342,1177.624,1951.342,1177.621,1951.562,1167.968L1951.562,1167.968z"/>
	</g>
</g>
<g>
	<g>
		<path d="M2134.905,1855.964c-2.18-34.56,1.749-68.993,11.731-102.153c-4.569,0.597-9.139,1.194-13.708,1.792
			c16.896,30.065,26.393,63.758,27.607,98.229c0.306,8.688,11.894,9.883,14.732,1.994c8.533-23.72,10.61-48.902,6.888-73.774
			c-0.598-3.997-5.661-6.237-9.226-5.238c-4.288,1.201-5.843,5.188-5.238,9.226c3.319,22.176,0.682,44.755-6.889,65.799
			c4.911,0.665,9.822,1.329,14.732,1.994c-1.308-37.123-11.454-73.413-29.656-105.8c-3.236-5.757-11.887-4.257-13.708,1.792
			c-10.332,34.322-14.523,70.367-12.267,106.141C2120.51,1865.552,2135.514,1865.62,2134.905,1855.964L2134.905,1855.964z"/>
	</g>
</g>
<g>
	<g>
		<path d="M2469.347,1844.036c96.309-53.353,172.317-139.864,214.58-241.371c12.219-29.346,21.403-59.824,27.51-91.016
			c1.839-9.391-11.653-13.333-14.464-3.988c-38.845,129.128-13.524,264.345,7.256,394.251
			c10.828,67.69,20.917,135.897,20.67,204.613c-0.217,60.139-3.151,132.958-48.623,178.069
			c-18.521,18.375-46.22,28.892-68.137,9.283c-20.105-17.988-19.228-50.321-12.621-74.168
			c16.868-60.889,70.83-106.074,116.431-146.007c98.795-86.517,183.165-186.037,246.739-301.326
			c31.478-57.084,57.77-117.092,78.302-178.965c18.657-56.224,35.318-132.996-23.873-171.854
			c-11.153-7.322-23.926-11.076-37.233-11.216c-3.629-0.038-5.958,2.423-7.232,5.506c-71.922,174.055-99.349,366.13-78.776,553.364
			c8.042,73.188,19.86,153.565,66.301,213.523c19.928,25.728,46.982,45.837,79.064,53.195c35.372,8.112,72.603-0.629,102.979-19.78
			c83.399-52.583,93.365-160.219,64.782-246.815c-2.171-6.577-9.85-6.883-13.708-1.792
			c-37.586,49.609-54.607,122.663-20.719,178.769c29.559,48.939,92.095,75.878,145.596,50.064
			c27.59-13.312,48.351-37.733,64.843-62.911c18.615-28.418,33.608-59.412,46.478-90.799
			c26.361-64.287,41.659-133.008,45.905-202.333c4.778-78.019-4.923-156.83-28.949-231.223c-1.899-5.879-10.505-7.708-13.708-1.792
			c-43.728,80.767-63.862,173.288-58.919,264.944c2.496,46.283,11.249,92.349,26.492,136.137
			c14.283,41.03,33.631,80.065,64.357,111.353c27.155,27.652,64.706,50.235,104.853,44.375
			c43.906-6.408,72.116-44.108,92.887-80.019c46.742-80.813,61.301-175.189,67.528-267.015c1.782-26.278,2.885-52.597,3.824-78.917
			c0.74-20.738,0.948-41.296-1.947-61.899c-5.095-36.263-20.691-75.238-59.557-85.239c-2.528-0.651-5.475-0.035-7.297,1.929
			c-43.572,46.966-57.559,110.645-64.205,172.507c-7.398,68.861-13.039,140.798-1.24,209.436
			c10.826,62.978,40.156,120.746,93.503,157.763c46.385,32.186,106.609,42.573,157.506,14.494
			c57.779-31.876,86.018-98.005,109.569-156.189c-4.822-1.329-9.643-2.658-14.464-3.988
			c-18.843,48.498-15.018,107.337,18.492,148.671c29.216,36.037,82.572,53.842,126.913,37.906
			c45.363-16.303,68.966-62.47,71.828-108.435c3.078-49.436-18.156-98.871-53.265-133.303
			c-35.108-34.432-83.341-51.889-132.21-43.76c-45.222,7.522-90.595,37.798-106.176,82.369c-6.904,19.75-7.329,43.18,1.779,62.288
			c10.573,22.183,32.866,30.391,56.405,28.473c30.982-2.526,62.119-9.176,92.682-14.691c32.555-5.874,64.997-12.374,97.304-19.486
			c129.229-28.448,256.293-66.729,379.717-114.438c15.125-5.847,30.191-11.845,45.209-17.963c8.822-3.594,4.963-18.11-3.988-14.464
			c-107.541,43.809-217.915,80.544-330.317,109.718c-55.878,14.503-112.236,27.155-168.953,37.919
			c-28.04,5.322-56.167,10.18-84.367,14.577c-23.572,3.676-54.957,11.378-69.113-14.004c-21.253-38.108,8.47-83.737,40.029-104.781
			c37.494-25.002,86.341-29.87,127.584-11.34c41.332,18.57,72.964,56.571,86.287,99.601c12.527,40.458,8.585,90.569-20.309,123.474
			c-34.245,39-94.377,36.199-132.429,4.097c-42.625-35.961-47.823-99.067-28.639-148.439c3.515-9.048-10.899-12.795-14.464-3.988
			c-19.833,48.999-42.635,103.33-85.969,136.355c-44.419,33.851-101.077,31.412-147.824,3.608
			c-116.17-69.096-108.125-220.06-98.384-337.046c5.445-65.395,15.681-136.283,62.115-186.333c-2.432,0.643-4.865,1.286-7.297,1.929
			c32.498,8.362,44.289,42.125,48.698,72.1c5.543,37.677,1.482,77.069-0.546,114.883c-4.552,84.87-14.123,172.263-49.696,250.458
			c-16.423,36.102-39.056,80.074-75.911,98.901c-37.034,18.918-77.384,1.916-106.189-23.779
			c-31.048-27.695-51.231-63.85-65.76-102.377c-14.875-39.448-24.499-80.938-28.511-122.905
			c-9.144-95.633,9.537-193.306,55.334-277.896c-4.569-0.597-9.139-1.194-13.708-1.792c39.146,121.21,39.115,253.486,1.24,375.028
			c-9.611,30.841-21.625,60.901-36.075,89.795c-13.511,27.017-28.533,54.347-49.115,76.695
			c-19.166,20.81-44.313,37.101-73.441,37.226c-27.244,0.117-53.38-12.844-72.394-31.884
			c-51.117-51.186-35.965-132.033,4.048-184.845c-4.569-0.597-9.139-1.194-13.708-1.792
			c24.704,74.843,21.403,167.732-44.769,220.596c-27.721,22.146-64.69,34.996-100.182,28.468
			c-31.918-5.871-58.64-25.821-77.719-51.51c-42.748-57.559-53.698-134.223-61.194-203.529
			c-9.347-86.421-8.49-173.922,2.306-260.168c12.347-98.631,38.184-195.497,76.136-287.344c-2.411,1.835-4.822,3.671-7.232,5.506
			c31.407,0.331,54.832,27.998,61.608,56.842c8.56,36.433-4.054,74.524-15.509,108.867c-21.312,63.897-48.915,125.619-82.098,184.23
			c-33.183,58.609-71.884,114.097-115.594,165.342c-43.303,50.768-92.139,94.698-141.751,139.063
			c-44.011,39.357-94.557,88.299-104.41,149.465c-3.835,23.808-1.68,50.601,14.257,69.865
			c15.869,19.183,42.211,25.551,65.134,16.293c24.474-9.885,42.729-32.308,55.024-54.941c14.85-27.336,20.011-57.453,23.576-88.031
			c7.886-67.643,2.341-135.953-6.741-203.178c-18.171-134.506-54.746-272.681-29.773-408.735
			c3.024-16.477,7.005-32.733,11.83-48.773c-4.821-1.329-9.643-2.658-14.464-3.988c-20.642,105.425-77.938,201.929-159.753,271.448
			c-23.337,19.83-48.664,37.139-75.444,51.975C2453.33,1835.762,2460.887,1848.722,2469.347,1844.036L2469.347,1844.036z"/>
	</g>
</g>
<g>
	<g>
		<path d="M2.269,667.998c65.916,63.725,112.563,143.386,158.575,221.846c51.127,87.184,104.092,173.255,159.329,257.899
			c14.312,21.931,27.885,44.939,44.408,65.304c13.657,16.832,31.775,31.445,54.448,31.479c9.652,0.014,9.667-14.985,0-15
			c-19.122-0.029-33.632-14.2-44.794-28.272c-14.179-17.875-25.977-37.931-38.448-57.008
			c-27.513-42.087-54.506-84.513-80.971-127.267c-26.047-42.08-51.554-84.489-76.6-127.172
			c-22.716-38.712-45.282-77.556-70.131-114.956c-27.929-42.036-58.859-82.318-95.208-117.459
			C5.933,650.679-4.687,661.273,2.269,667.998L2.269,667.998z"/>
	</g>
</g>
<g>
	<g>
		<path d="M331.802,768.132c-1.913-10.494-3.825-20.988-5.738-31.482c-4.569,1.926-9.139,3.853-13.708,5.779
			c66.016,97.288,129.026,196.609,188.872,297.811c17.005,28.756,33.749,57.666,50.247,86.717c2.823-3.672,5.647-7.345,8.47-11.018
			c-64.127-22.275-129.114-42.051-194.799-59.201c-18.766-4.9-37.589-9.58-56.46-14.06c0,4.821,0,9.643,0,14.464
			c89.793-37.847,175.178-85.697,254.014-143.001c22.119-16.078,43.719-32.872,64.78-50.313c7.441-6.162-3.221-16.723-10.607-10.607
			c-73.56,60.919-154.132,113.317-239.566,156.013c-23.838,11.913-48.052,23.092-72.609,33.443c-6.189,2.609-7.993,12.566,0,14.464
			c66.05,15.682,131.481,33.933,196.09,54.773c18.459,5.954,36.847,12.124,55.169,18.488c6.39,2.219,11.537-5.617,8.47-11.017
			c-58.059-102.237-119.27-202.677-183.567-301.11c-18.27-27.97-36.793-55.773-55.552-83.418c-4.871-7.179-15.24-2.628-13.708,5.779
			c1.913,10.494,3.825,20.988,5.738,31.482C319.066,781.603,333.525,777.586,331.802,768.132L331.802,768.132z"/>
	</g>
</g>
<g>
	<g>
		<path d="M774.37,801.703c-23.343,29.173-18.204,71.093,4.428,99.148c11.219,13.908,27.219,23.635,45.032,25.91
			c21.426,2.735,43.032-5.203,59.186-19.178c16.122-13.947,26.441-34.857,25.43-56.383c-0.969-20.639-11.042-40.812-26.76-54.205
			c-16.593-14.139-38.129-20.199-59.534-15.24c-20.457,4.74-38.968,18.967-49.014,37.378c-11.734,21.504-10.457,47.143,2.301,67.917
			c12.84,20.906,35.426,35.346,60.177,35.96c9.656,0.24,9.651-14.76,0-15c-34.796-0.864-64.002-37.871-53.548-71.821
			c10.202-33.128,51.204-52.135,81.679-33.792c14.455,8.701,24.831,23.564,28.502,39.98c3.813,17.055-1.399,34.759-12.91,47.76
			c-21.508,24.291-58.969,30.556-83.43,7.203c-21.834-20.845-31.027-59.919-10.932-85.032c2.549-3.186,3.054-7.485,0-10.607
			C782.383,799.052,776.895,798.547,774.37,801.703L774.37,801.703z"/>
	</g>
</g>
<g>
	<g>
		<path d="M944.79,707.32c18.869,24.428,37.738,48.855,56.607,73.283c8.97,11.613,17.73,23.428,26.956,34.839
			c7.742,9.576,17.634,17.44,30.481,17.717c26.439,0.571,41.915-25.1,55.598-43.61c5.966-8.071,13.377-16.846,23.309-19.948
			c6.968-2.176,14.11-1.604,20.746,1.364c15.466,6.916,26.938,21.241,39.268,32.361c13.9,12.535,30.434,24.063,50.036,23.214
			c22.325-0.967,39.757-16.471,52.665-33.392c16.105-21.113,27.027-46.041,39.2-69.495c15.842-30.524,31.685-61.048,47.527-91.572
			c7.769-14.969,15.538-29.937,23.307-44.906c4.214-8.12,12.793-25.271,24.413-20.714c3.798,1.49,8.196-1.638,9.226-5.238
			c1.213-4.237-1.484-7.754-5.238-9.226c-26.064-10.221-41.168,27.251-50.036,44.337c-14.014,27.002-28.029,54.004-42.043,81.006
			c-13.833,26.652-27.434,53.441-41.516,79.962c-9.726,18.317-21.868,38.472-40.435,48.999
			c-35.457,20.102-62.626-22.82-87.186-41.154c-14.584-10.887-32.439-15.699-49.624-7.763
			c-21.625,9.987-29.657,34.049-46.123,49.566c-8.67,8.17-21.419,15.458-32.781,8.015c-5.322-3.486-9.265-8.897-13.117-13.865
			c-5.231-6.747-10.438-13.513-15.657-20.27c-20.876-27.026-41.753-54.052-62.629-81.079c-2.494-3.229-6.418-4.878-10.261-2.691
			C944.307,698.865,942.318,704.12,944.79,707.32L944.79,707.32z"/>
	</g>
</g>
<g>
	<g>
		<path d="M1723.308,637.222c75.191-23.986,145.485-61.1,207.892-109.375c-3.926-3.03-7.853-6.059-11.779-9.089
			c-25.091,43.116-42.7,90.591-51.317,139.746c-3.828,21.84-9.289,47.633-0.178,68.831c8.7,20.24,29.974,29.16,49.608,35.551
			c78.215,25.456,180.511,12.054,219.672-69.407c15.913-33.102,19.546-72.819,3.273-106.508
			c-9.367-19.393-25.473-34.506-43.224-46.257c-20.22-13.386-43.093-24.15-66.278-31.232
			c-42.322-12.927-91.725-9.546-121.938,26.381c-12.504,14.869-20.152,33.781-18.134,53.419c1.704,16.591,9.53,31.721,21.756,43.038
			c25.308,23.425,63.361,30.967,96.739,26.313c44.731-6.236,83.531-34.165,124.233-51.678c10.737-4.62,21.774-8.5,33.092-11.429
			c-2.823-3.673-5.647-7.345-8.47-11.018c-26.708,47.269-40.938,105.561-24.425,158.749c13.57,43.706,48.089,82.821,93.343,94.476
			c97.269,25.051,170.881-76.14,196.417-156.686c8.614-27.17,16.043-62.064-2.032-87.218c-13.919-19.37-41.096-31.396-63.124-18.03
			c-4.744,2.878-4.979,10.129,0,12.952c58.706,33.285,131.107,36.758,192.957,10.105c-3.762-2.159-7.524-4.317-11.285-6.476
			c-1.793,52.648-24.961,103.023-22.168,155.992c2.023,38.38,17.642,81.788,54.208,99.913
			c42.994,21.312,94.141-0.012,129.422-26.995c32.889-25.154,57.705-59.397,72.868-97.824
			c16.975-43.021,20.744-91.248,8.664-136.026c-1.323-4.901-6.759-6.637-11.018-4.482c-42.814,21.661-54.106,74.664-42.935,118.038
			c5.991,23.262,18.454,44.448,36.497,60.362c21.859,19.28,48.845,31.615,77.04,38.386c32.676,7.848,66.704,8.917,100.115,6.707
			c9.582-0.634,9.653-15.639,0-15c-52.666,3.484-110.331-0.579-154.993-31.629c-35.628-24.769-54.837-69.188-45.798-112.195
			c4.664-22.187,17.131-41.338,37.645-51.716c-3.673-1.494-7.345-2.988-11.018-4.482c19.929,73.872-7.05,156.157-63.206,207.246
			c-29.535,26.87-75.141,52.52-116.128,40.374c-36.1-10.697-52.853-50.234-55.948-84.818
			c-4.904-54.796,19.897-107.367,21.753-161.85c0.213-6.253-6.401-8.581-11.285-6.476c-56.737,24.449-124.191,20.298-177.815-10.105
			c0,4.317,0,8.635,0,12.952c16.256-9.864,36.627,1.794,45.202,16.66c12.264,21.264,5.025,49.041-1.818,70.821
			c-12.55,39.944-33.871,78.483-63.678,108.143c-27.469,27.334-64.599,47.022-104.346,40.987
			c-41.161-6.25-74.573-38.232-89.573-76.151c-20.467-51.739-7.089-110.22,19.417-157.132c3.237-5.728-2.105-12.665-8.47-11.018
			c-41.631,10.777-77.379,35.304-116.87,51.357c-16.7,6.789-33.983,12.148-52.121,12.527c-15.361,0.321-30.748-2.198-45.086-7.776
			c-27.468-10.686-49.676-36.384-41.345-67.369c4.498-16.728,16.688-30.67,31.164-39.758c17.287-10.853,37.326-14.093,57.48-12.41
			c22.648,1.891,44.664,9.994,64.953,19.883c18.974,9.248,37.711,20.098,52.149,35.754c23.028,24.972,27.645,60.359,18.756,92.305
			c-9.456,33.982-32.477,61.704-63.873,77.601c-35.209,17.828-77,20.293-115.334,13.17c-18.761-3.486-39.329-8.394-55.755-18.468
			c-8.365-5.13-14.517-12.243-17.035-21.854c-2.603-9.938-1.692-20.531-0.572-30.623c4.95-44.601,17.818-88.689,37.214-129.129
			c4.891-10.197,10.22-20.17,15.908-29.944c4.604-7.911-5.427-14.003-11.779-9.089c-60.256,46.611-128.721,82.373-201.273,105.517
			C1710.158,625.68,1714.074,640.167,1723.308,637.222L1723.308,637.222z"/>
	</g>
</g>
<g>
	<g>
		<path d="M3015.345,421.059c40.073-40.886,90.014-70.816,144.994-86.795c-3.075-3.075-6.151-6.151-9.226-9.226
			c-41.979,125.364-68.767,255.658-79.724,387.412c-5.083,61.123-8.257,123.384-4.105,184.663
			c3.418,50.451,12.911,102.905,40.365,146.276c27.498,43.442,71.804,71.412,122.636,78.474
			c51.663,7.177,105.216-5.166,149.979-31.503c48.4-28.477,86.914-70.613,118.824-116.282
			c34.247-49.011,62.537-102.565,86.701-157.179c50.188-113.432,80.905-235.14,90.207-358.849
			c1.136-15.109,1.924-30.24,2.428-45.384c0.244-7.34-10.51-10.344-13.976-3.785c-68.123,128.891-102.654,271.644-122.88,415.188
			c-20.594,146.16-26.323,293.722-42.897,440.287c-8.435,74.593-21.463,149.472-49.086,219.601
			c-6.621,16.809-13.713,34.022-23.031,49.546c-7.638,12.727-19.375,28.135-34.884,31.21c-17.488,3.468-28.78-13.007-36.471-26.075
			c-7.846-13.332-13.499-27.72-17.123-42.749c-15.087-62.566,5.865-130.213,40.187-182.812
			c38.128-58.433,95.061-102.462,149.665-144.548c56.339-43.423,110.954-87.899,159.448-140.167
			c48.15-51.897,90.802-109.006,126.789-169.974c8.691-14.723,16.969-29.682,24.89-44.833c-4.659-1.262-9.317-2.524-13.976-3.785
			c2.062,44.688,9.931,93.367,34.572,131.642c21.719,33.735,63.182,56.24,102.626,38.474c34.677-15.618,51.061-57.427,49.515-93.502
			c-0.825-19.251-6.557-38.514-18.289-53.974c-13.662-18.003-34.727-29.969-56.498-35.237
			c-54.015-13.071-114.01,10.968-149.553,52.343c-3.652,4.252-2.385,10.85,3.309,12.535c86.012,25.456,180.526,16.398,260.916-23.03
			c22.764-11.165,44.035-24.89,63.865-40.667c-4.178-2.432-8.356-4.865-12.535-7.297c-22.998,64.359,19.257,133.434,76.535,162.879
			c63.551,32.669,137.157,11.002,188.028-34.879c29.711-26.797,52.055-61.248,65.478-98.855c3.252-9.111-11.226-13.02-14.464-3.988
			c-13.291,37.067,12.535,75.744,45.156,92.402c44.315,22.63,96.863,6.901,141.23-7.043c9.178-2.884,5.258-17.37-3.987-14.464
			c-38.872,12.216-85.851,27.816-125.631,10.495c-28.914-12.59-53.907-45.042-42.304-77.403c-4.821-1.329-9.643-2.658-14.464-3.988
			c-21.232,59.487-68.891,113.273-130.387,132.127c-29.943,9.18-61.947,9.321-91.108-2.702
			c-27.364-11.282-51.25-31.692-66.955-56.735c-17.715-28.248-24.036-62.028-12.661-93.86c2.799-7.833-7.329-11.44-12.536-7.297
			c-66.695,53.063-153.512,78.681-238.324,72.899c-24.387-1.663-48.432-6.126-71.862-13.06c1.103,4.178,2.206,8.357,3.309,12.535
			c28.662-33.364,73.126-54.142,117.426-51.18c38.943,2.604,73.15,26.601,80.122,66.115c5.369,30.426-4.745,68.769-31.517,86.712
			c-30.334,20.331-68.203,4.627-87.895-22.649c-26.307-36.439-34.093-85.478-36.117-129.351
			c-0.324-7.029-10.349-10.724-13.976-3.785c-33.895,64.839-74.9,125.881-122.415,181.531
			c-47.539,55.677-101.351,104.569-159.119,149.389c-57.248,44.416-117.006,87.551-162.172,144.976
			c-39.972,50.822-66.861,115.751-63.898,181.244c1.439,31.818,10.441,63.577,28.198,90.213
			c8.654,12.982,20.108,24.92,36.432,26.615c14.833,1.54,28.341-6.221,38.713-16.173c12.456-11.952,20.625-27.18,27.899-42.618
			c8.171-17.343,15.407-35.141,21.761-53.228c12.63-35.95,21.751-73.049,28.693-110.49c13.969-75.34,19.648-152.025,25.95-228.297
			c6.246-75.598,12.095-151.247,20.549-226.64c16.692-148.864,43.945-299.021,106.24-436.255
			c7.647-16.846,15.824-33.441,24.469-49.797c-4.659-1.262-9.317-2.524-13.976-3.785c-3.994,120.092-28.434,239.152-71.774,351.219
			c-21.467,55.509-47.639,109.294-78.247,160.342c-27.785,46.34-60.14,90.782-101.79,125.675
			c-40.339,33.795-89.605,56.41-142.631,58.804c-50.263,2.27-99.686-14.384-133.389-52.745
			c-32.453-36.94-45.731-87.222-51.171-135.043c-6.422-56.454-4.125-114.204-0.729-170.783
			c7.656-127.589,30.425-254.198,67.611-376.487c4.544-14.943,9.315-29.814,14.275-44.624c1.827-5.457-3.938-10.763-9.226-9.226
			c-57.391,16.679-109.775,47.965-151.613,90.652C2997.976,417.352,3008.574,427.967,3015.345,421.059L3015.345,421.059z"/>
	</g>
</g>
</svg>