<!-- Generator: Adobe Illustrator 21.1.0, SVG Export Plug-In  -->
<svg version="1.1"
	 xmlns="http://www.w3.org/2000/svg" xmlns:xlink="http://www.w3.org/1999/xlink" xmlns:a="http://ns.adobe.com/AdobeSVGViewerExtensions/3.0/"
	 x="0px" y="0px" width="429.585px" height="649.665px" viewBox="0 0 429.585 649.665"
	 style="overflow:scroll;enable-background:new 0 0 429.585 649.665;" xml:space="preserve">
<defs>
</defs>
<g>
	<g>
		<path d="M24.461,127.764c1.156-33.268-0.859-66.519-5.924-99.417c-1.393,0.811-2.786,1.622-4.178,2.432
			C24.867,43.496,35.375,56.213,45.883,68.93c5.044,6.104,10.075,12.219,15.132,18.313c3.106,3.743,6.626,7.79,12.031,6.293
			c5.143-1.424,8.01-6.784,10.308-11.134c3.668-6.945,7.272-13.924,10.908-20.885c7.575-14.504,15.151-29.008,22.726-43.511
			c-1.439,0-2.878,0-4.317,0c6.585,12.562,13.44,24.979,20.599,37.223c3.576,6.115,7.142,12.264,10.955,18.235
			c2.301,3.603,5.113,7.626,9.303,9.171c10.408,3.837,16.876-10.376,21.487-17.033c8.194-11.827,16.387-23.655,24.581-35.482
			c-1.523-0.199-3.046-0.398-4.569-0.597c6.284,16.159,13.704,31.811,22.288,46.876c0.745,1.308,2.88,1.744,3.926,0.506
			c20.44-24.192,40.881-48.385,61.321-72.577c-1.423-0.589-2.845-1.179-4.268-1.768c4.493,37.641,8.318,75.357,11.474,113.133
			c0.833-0.833,1.667-1.667,2.5-2.5c-60.738-0.366-124.526,3.766-179.928,30.995c-15.341,7.54-29.66,16.925-42.665,28.018
			c-2.452,2.091,1.099,5.614,3.536,3.536c46.529-39.691,108.467-52.754,168.016-56.345c16.993-1.025,34.019-1.307,51.04-1.204
			c1.269,0.008,2.612-1.154,2.5-2.5c-3.156-37.776-6.982-75.492-11.474-113.133c-0.227-1.901-2.711-3.611-4.268-1.768
			c-20.44,24.192-40.881,48.385-61.321,72.577c1.309,0.169,2.618,0.337,3.926,0.506c-8.369-14.688-15.656-29.925-21.784-45.681
			c-0.796-2.047-3.289-2.446-4.569-0.597c-6.704,9.677-13.408,19.354-20.112,29.031c-3.352,4.838-6.697,9.682-10.056,14.516
			c-1.412,2.032-2.85,4.657-5.001,5.978c-3.331,2.046-6.096,0.603-8.532-1.995c-3.536-3.77-5.923-8.869-8.567-13.27
			c-2.988-4.973-5.927-9.976-8.818-15.006c-5.943-10.341-11.668-20.804-17.205-31.367c-0.853-1.627-3.466-1.631-4.317,0
			c-6.363,12.183-12.726,24.366-19.09,36.55c-3.333,6.382-6.666,12.763-9.999,19.145c-2.538,4.86-5.157,13.265-9.934,16.408
			c-3.747,2.466-6.111-0.284-8.466-3.113c-2.322-2.789-4.624-5.596-6.935-8.393c-4.413-5.341-8.827-10.682-13.24-16.024
			c-9.037-10.937-18.074-21.873-27.111-32.81c-1.778-2.152-4.511,0.273-4.178,2.432c4.996,32.448,6.885,65.28,5.745,98.088
			C19.349,130.982,24.349,130.977,24.461,127.764L24.461,127.764z"/>
	</g>
</g>
<g>
	<g>
		<path d="M105.393,184.452c-35.924,39.633-49.848,100.001-18.421,146.54c15.204,22.516,38.159,36.16,64.858,40.407
			c25.916,4.122,53.643,2.86,79.467-1.542c23.488-4.004,47.009-11.896,65.837-26.91c18.148-14.471,29.877-34.977,32.334-58.111
			c2.367-22.287-3.696-45.749-17.067-63.794c-15.408-20.795-39.694-31.914-64.913-35.247c-30.76-4.065-61.434,3.421-90.542,12.821
			c-23.277,7.517-49.723,15.21-66.863,33.768c-3.955,4.282-7.211,9.094-9.724,14.35c-1.381,2.889,2.928,5.428,4.317,2.524
			c10.342-21.628,33.42-31.917,54.833-39.506c27.06-9.591,55.289-18.805,84.19-19.998c25.8-1.065,53.597,4.705,73.51,22.088
			c16.358,14.279,25.924,35.447,27.506,56.962c1.625,22.094-5.196,43.795-20.113,60.303c-15.13,16.743-36.099,26.641-57.637,32.288
			c-22.914,6.007-46.941,7.69-70.561,7.106c-26.904-0.666-53.515-6.439-73.298-25.84c-19.44-19.064-29.7-46.323-28.878-73.41
			c0.918-30.261,14.566-59.048,34.701-81.262C111.085,185.608,107.56,182.061,105.393,184.452L105.393,184.452z"/>
	</g>
</g>
<g>
	<g>
		<path d="M161.043,287.092c-1.021,0.663-2.572-1.9-1.798-2.394c-1.224-0.498-2.448-0.996-3.672-1.494
			c0.978,2.748-1.442,6.384-4.572,5.753c0.582,0.582,1.164,1.164,1.746,1.746c-0.177-0.423-0.25-0.902,0.402-0.687
			c3.063,1.01,4.376-3.817,1.329-4.821c-6.514-2.147-10.076,9.196-2.395,8.826c5.767-0.277,10.255-6.683,8.311-12.147
			c-0.516-1.451-2.223-2.42-3.673-1.494c-6.45,4.121,0.457,15.174,6.845,11.029C166.256,289.664,163.753,285.333,161.043,287.092
			L161.043,287.092z"/>
	</g>
</g>
<g>
	<g>
		<path d="M215.752,278.624c-2.478,1.235-4.956,2.471-7.433,3.706c0.841,1.439,1.682,2.878,2.524,4.317
			c0.405-0.273,0.495-0.188,0.903,0.1c0.174,0.123,0.464,0.47,0.483,0.685c0.014,0.166,0.061-0.153,0.027-0.133
			c-0.239,0.139-0.646,0.099-0.959-0.049c-0.117-0.055-0.228-0.138-0.332-0.2c-0.105,0.069-0.168-0.019-0.187-0.261
			c0.085,0.444,0.115,0.44,0.088-0.013c0.018-3.218-4.982-3.222-5,0c-0.029,5.162,7.644,7.817,10.528,3.299
			c3.053-4.781-3.438-10.878-8.075-7.746c-2.669,1.803-0.367,5.759,2.524,4.317c2.478-1.235,4.956-2.471,7.433-3.706
			C221.156,281.505,218.626,277.191,215.752,278.624L215.752,278.624z"/>
	</g>
</g>
<g>
	<g>
		<path d="M163.199,341.195c-4.781-0.53-8.869,2.555-9.789,7.254c-0.219,1.116,0.149,2.216,1.149,2.823
			c15.405,9.365,36.799,1.633,43.102-15.09c1.136-3.014-3.695-4.317-4.821-1.329c-5.198,13.789-23.299,19.675-35.757,12.102
			c0.383,0.941,0.766,1.882,1.149,2.823c0.454-2.316,2.63-3.842,4.968-3.583C166.392,346.549,166.367,341.546,163.199,341.195
			L163.199,341.195z"/>
	</g>
</g>
<g>
	<g>
		<path d="M280.012,364.288c3.217,0,3.223-5,0-5C276.795,359.288,276.79,364.288,280.012,364.288L280.012,364.288z"/>
	</g>
</g>
<g>
	<g>
		<path d="M277.84,365.995c41.163,17.728,82.582,44.171,104.591,84.533c5.427,9.953,11.159,22.177,12.091,33.642
			c1.221,15.012-20.573,14.611-30.611,13.165c-25.098-3.615-46.09-21.405-63.774-38.346c-23.44-22.455-45.981-45.915-68.909-68.892
			c-2.276-2.281-5.812,1.254-3.536,3.536c22.738,22.787,45.117,46.013,68.32,68.326c18.496,17.786,40.348,36.218,66.569,40.198
			c10.003,1.518,24.135,1.882,32.253-5.336c9.279-8.25,2.799-23.546-0.859-33.122c-8.607-22.528-23.668-41.942-41.62-57.845
			c-21.193-18.773-46.072-33.015-71.992-44.177C277.44,360.418,274.89,364.724,277.84,365.995L277.84,365.995z"/>
	</g>
</g>
<g>
	<g>
		<path d="M92.963,385.552c-22.52,3.715-43.588,14.965-59.1,31.744c-8.178,8.845-14.375,19.13-19.7,29.887
			c-5.422,10.954-10.573,22.341-12.93,34.401c-2.11,10.797-1.854,22.221,3.47,32.096c4.688,8.697,12.85,14.816,21.988,18.244
			c23.351,8.76,47.868-1.971,67.608-14.452c23.387-14.787,43.704-33.918,60.182-56.119c1.606-2.164-1.41-4.458-3.42-3.42
			c-2.432,1.255-4.864,2.511-7.296,3.766c-2.86,1.476-0.334,5.793,2.524,4.317c2.432-1.255,4.864-2.511,7.296-3.766
			c-1.14-1.14-2.28-2.28-3.42-3.421c-13.574,18.288-29.958,34.493-48.522,47.703c-18.096,12.876-40.626,26.533-63.799,23.113
			c-9.462-1.396-18.765-5.63-25.071-12.971c-7.621-8.87-8.905-20.994-7.013-32.146c1.883-11.095,6.341-21.577,11.185-31.661
			c4.827-10.048,10.174-19.95,17.365-28.528c15.202-18.135,36.687-30.122,59.985-33.965
			C97.459,389.851,96.115,385.032,92.963,385.552L92.963,385.552z"/>
	</g>
</g>
<g>
	<g>
		<path d="M33.365,511.603c-10.669,1.622-19.233,9.729-22.584,19.853c-3.427,10.353-0.124,21.46,7.56,29.006
			c16.981,16.674,44.73,8.902,53.43-12.453c2.122-5.207,3.732-12.521-0.549-17.129c-3.201-3.446-9.04-3.847-12.08-0.058
			c-1.995,2.486,1.521,6.046,3.536,3.536c1.9-2.369,3.808-0.972,5.075,0.699c1.395,1.84,1.285,3.947,0.906,6.126
			c-0.449,2.579-1.453,5.138-2.663,7.447c-2.309,4.406-5.733,8.247-9.823,11.075c-8.599,5.945-19.518,6.799-28.653,1.515
			c-8.715-5.041-14.728-14.929-12.785-25.159c1.907-10.04,9.835-18.097,19.959-19.636C37.865,515.942,36.518,511.123,33.365,511.603
			L33.365,511.603z"/>
	</g>
</g>
<g>
	<g>
		<path d="M388.036,493.87c-4.843-0.032-8.594,3.703-9.072,8.515c-0.543,5.478,3.499,10.083,7.554,13.17
			c5.621,4.279,12.337,7.026,19.325,8.007c5.588,0.785,12.797,1.092,17.867-1.896c9.748-5.744,5.242-21.981,1.573-30.043
			c-4.529-9.952-13.919-18.673-25.451-18.213c-11.048,0.441-21.928,8.501-21.903,20.201c0.007,3.217,5.007,3.223,5,0
			c-0.02-9.4,9.429-15.337,18.12-15.218c10.324,0.141,17.79,9.466,20.986,18.433c1.548,4.344,2.639,9.25,2.312,13.882
			c-0.542,7.655-7.413,8.487-13.756,8.287c-6.114-0.193-12.186-1.928-17.471-5.012c-2.28-1.33-4.516-2.868-6.313-4.815
			c-2.33-2.526-5.411-10.342,1.228-10.298C391.254,498.891,391.257,493.891,388.036,493.87L388.036,493.87z"/>
	</g>
</g>
<g>
	<g>
		<path d="M72.286,556.192c-14.804,15.64-25.632,37.487-18.334,59.211c7.685,22.877,30.595,27.709,51.843,30.559
			c26.637,3.572,53.859,5.83,80.455,0.697c21.143-4.08,41.337-13.119,58.755-25.735c19.687-14.26,35.87-33.025,46.733-54.79
			c1.047-2.097-0.668-3.98-2.823-3.672c-2.189,0.312-4.378,0.625-6.568,0.937c-3.173,0.453-1.823,5.271,1.329,4.821
			c2.189-0.312,4.378-0.625,6.568-0.937c-0.941-1.224-1.882-2.448-2.823-3.672c-17.731,35.525-50.081,62.975-88.065,74.626
			c-22.71,6.966-46.646,7.395-70.145,5.379c-11.963-1.027-24.046-2.327-35.848-4.576c-10.21-1.946-20.897-5.258-27.976-13.334
			c-17.907-20.43-5.663-48.97,10.436-65.977C78.033,557.391,74.503,553.849,72.286,556.192L72.286,556.192z"/>
	</g>
</g>
<g>
	<g>
		<path d="M400.673,524.411c2.973,17.184-8.987,31.824-21.473,42.036c-12.952,10.594-28.559,18.534-43.861,25.123
			c-31.904,13.738-66.769,20.573-101.488,20.152c-19.749-0.24-39.358-2.899-58.468-7.876c-3.116-0.812-4.446,4.01-1.329,4.821
			c35.906,9.351,73.604,10.469,110.061,3.654c18.19-3.4,35.974-8.822,52.984-16.105c16.246-6.956,32.589-15.395,46.24-26.736
			c13.832-11.491,25.409-27.58,22.154-46.398C404.947,519.917,400.127,521.258,400.673,524.411L400.673,524.411z"/>
	</g>
</g>
<g>
	<g>
		<path d="M224.424,537.4c18.621,17.103,43.917,24.86,68.924,21.378c1.091-0.152,1.805-1.416,1.835-2.411
			c0.614-20.442-18.115-33.338-36.072-37.484c-9.507-2.195-42.997-9.867-42.852,8.257c0.026,3.216,5.026,3.223,5,0
			c-0.1-12.512,33.881-4.256,39.852-2.594c14.672,4.085,29.576,15.07,29.072,31.82c0.612-0.804,1.224-1.607,1.835-2.411
			c-23.128,3.22-46.888-4.321-64.059-20.092C225.593,531.691,222.047,535.218,224.424,537.4L224.424,537.4z"/>
	</g>
</g>
</svg>