<!-- Generator: Adobe Illustrator 21.1.0, SVG Export Plug-In  -->
<svg version="1.1"
	 xmlns="http://www.w3.org/2000/svg" xmlns:xlink="http://www.w3.org/1999/xlink" xmlns:a="http://ns.adobe.com/AdobeSVGViewerExtensions/3.0/"
	 x="0px" y="0px" width="575.921px" height="651.916px" viewBox="0 0 575.921 651.916"
	 style="overflow:scroll;enable-background:new 0 0 575.921 651.916;" xml:space="preserve">
<defs>
</defs>
<g>
	<g>
		<g>
			<path d="M296.995,83.083c22.473-24.524,42.594-51.095,60.097-79.382c-1.553-0.421-3.106-0.841-4.659-1.262
				c-0.27,16.495-0.54,32.99-0.811,49.484c-0.135,8.247-0.301,16.495-0.405,24.742c-0.059,4.679,0.37,9.641,5.154,11.848
				c4.116,1.899,9.033,0.466,13.02-1.031c7.958-2.988,15.795-6.355,23.681-9.528c15.18-6.107,30.361-12.215,45.541-18.322
				c-1.025-1.025-2.05-2.05-3.075-3.075c-3.152,13.828-6.006,27.722-8.515,41.682c-1.254,6.975-2.506,13.966-3.515,20.98
				c-0.581,4.043-1.055,8.431,0.624,12.289c4.748,10.911,19.614,4.133,27.687,2.003c13.912-3.671,27.824-7.342,41.737-11.013
				c-1.025-1.025-2.05-2.05-3.075-3.075c-5.645,16.165-10.085,32.683-13.304,49.5c-0.38,1.986,1.133,3.393,3.075,3.075
				c31.255-5.118,62.51-10.236,93.766-15.353c-0.941-1.224-1.882-2.448-2.823-3.673c-21.032,31.538-42.622,62.7-64.758,93.473
				c1.309-0.169,2.618-0.337,3.926-0.506c-46.015-39.787-97.299-78.28-157.246-93.481c-16.437-4.168-33.319-6.352-50.279-6.368
				c-3.217-0.003-3.222,4.997,0,5c60.726,0.057,115.797,29.739,163.237,65.286c14.01,10.498,27.512,21.651,40.752,33.099
				c1.301,1.125,2.943,0.862,3.926-0.506c22.137-30.773,43.726-61.935,64.758-93.473c1.334-2-0.862-3.994-2.823-3.673
				c-31.255,5.118-62.51,10.236-93.766,15.353c1.025,1.025,2.05,2.05,3.075,3.075c3.22-16.817,7.659-33.335,13.304-49.5
				c0.647-1.851-1.335-3.535-3.075-3.075c-11.383,3.003-22.765,6.007-34.148,9.01c-5.691,1.502-11.38,3.014-17.074,4.505
				c-2.82,0.738-6.075,1.993-8.94,1.026c-3.273-1.105-4.02-3.742-4.094-7.029c-0.113-5.031,1.228-10.202,2.056-15.142
				c0.959-5.722,1.973-11.435,3.042-17.137c2.198-11.723,4.641-23.396,7.292-35.025c0.38-1.665-1.188-3.834-3.075-3.075
				c-13.055,5.252-26.11,10.505-39.165,15.757c-6.376,2.565-12.751,5.13-19.127,7.695c-5.295,2.13-11.952,6.244-17.841,6.129
				c-7.478-0.145-4.856-12.524-4.773-17.624c0.113-6.928,0.227-13.856,0.34-20.783c0.238-14.515,0.476-29.031,0.713-43.546
				c0.042-2.539-3.384-3.323-4.659-1.262c-17.284,27.934-37.122,54.152-59.315,78.37C291.289,81.916,294.816,85.462,296.995,83.083
				L296.995,83.083z"/>
		</g>
	</g>
	<g>
		<g>
			<path d="M322.04,178.601c-50.154,6.411-97.729,39.166-108.041,90.973c-4.986,25.046-0.289,50.672,14.317,71.733
				c15.198,21.913,37.616,39.75,59.708,54.332c22.435,14.808,48.186,26.74,75.421,27.983c24.279,1.108,47.721-7.324,65.001-24.518
				c15.625-15.547,25.636-36.826,27.085-58.862c1.609-24.471-8.811-47.714-24.488-66.036
				c-18.562-21.695-43.894-35.937-69.717-47.274c-13.123-5.762-26.458-11.372-40.081-15.845c-13.144-4.315-27.24-7.527-41.15-6.071
				c-6.347,0.665-12.343,2.321-18.177,4.891c-2.938,1.295-0.397,5.604,2.524,4.317c25.382-11.184,53.731,0.364,77.644,10.024
				c25.211,10.184,50.754,21.56,71.495,39.532c17.913,15.521,32.673,36.288,36.316,60.152c3.215,21.058-3.108,42.866-15.258,60.126
				c-12.883,18.301-32.384,30.737-54.614,33.842c-25.842,3.61-51.681-4.936-74.1-17.265c-22.185-12.201-43.178-28.298-60.679-46.611
				c-17.473-18.282-28.661-40.476-28.239-66.157c0.443-26.955,12.457-52.632,31.98-71.042
				c19.848-18.716,46.159-29.786,73.055-33.224C325.188,183.199,325.228,178.194,322.04,178.601L322.04,178.601z"/>
		</g>
	</g>
	<g>
		<g>
			<path d="M297.047,292.757c0.157,0.019-0.032,0.181-0.137-0.269c-0.106-0.456-0.176-0.811-0.112-1.294
				c0.026-0.197,0.324-1.487,0.658-1.437c-0.582-1.025-1.164-2.05-1.746-3.075c-0.916,2.467-5.323,3.304-6.98,1.148
				c0.084,0.642,0.168,1.284,0.252,1.926c0.051-0.175,0.456-0.113,0.518-0.004c1.596,2.793,5.918,0.277,4.317-2.524
				c-3.566-6.239-14.063,0.554-7.325,5.234c4.89,3.396,12.007,1.022,14.038-4.452c0.431-1.16-0.489-2.889-1.746-3.075
				c-7.97-1.183-9.744,11.836-1.738,12.821C300.233,298.149,300.205,293.145,297.047,292.757L297.047,292.757z"/>
		</g>
	</g>
	<g>
		<g>
			<path d="M344.81,321.943c-2.686-0.67-5.373-1.34-8.059-2.01c-0.222,1.637-0.443,3.274-0.665,4.911
				c-0.081-0.01,0.423,1.299,0.116,1.418c0.096-0.037-1.051-0.845-0.759-1.199c2.036-2.462-1.482-6.018-3.536-3.536
				c-1.735,2.098-1.861,4.743-0.322,7.024c1.524,2.259,4.485,3.427,7,2.07c2.21-1.192,3.048-3.831,2.55-6.197
				c-0.552-2.63-2.43-4.265-5.05-4.581c-2.822-0.34-3.352,4.24-0.665,4.911c2.686,0.67,5.373,1.34,8.059,2.01
				C346.603,327.543,347.935,322.722,344.81,321.943L344.81,321.943z"/>
		</g>
	</g>
	<g>
		<g>
			<path d="M264.132,335.466c-3.518-3.854-8.744-3.868-12.665-0.673c-0.647,0.528-0.896,1.661-0.643,2.432
				c5.599,17.032,26.748,25.432,42.484,16.767c2.819-1.553,0.3-5.872-2.524-4.317c-12.827,7.064-30.554,0.166-35.138-13.779
				c-0.214,0.811-0.429,1.622-0.643,2.432c1.909-1.556,4.136-0.924,5.594,0.673C262.77,341.383,266.298,337.84,264.132,335.466
				L264.132,335.466z"/>
		</g>
	</g>
	<g>
		<g>
			<path d="M339.43,429.365c3.217,0,3.223-5,0-5C336.212,424.365,336.207,429.365,339.43,429.365L339.43,429.365z"/>
		</g>
	</g>
	<g>
		<g>
			<path d="M335.249,429.092c21.962,44.68,37.413,99.126,19.841,147.903c-1.949,5.41-4.168,10.916-7.166,15.842
				c-5.224,8.582-13.28,6.715-20.6,2.048c-8.726-5.564-15.561-13.563-20.566-22.556c-10.303-18.51-13.491-40.383-15.433-61.182
				c-2.928-31.365-4.933-62.841-7.368-94.248c-0.247-3.187-5.249-3.214-5,0c2.435,31.407,4.439,62.883,7.368,94.248
				c2.104,22.532,5.595,46.31,17.458,66.028c8.926,14.835,35.739,41.098,49.208,16.864c13.077-23.529,16.325-51.98,13.784-78.412
				c-2.994-31.14-13.473-61.115-27.209-89.059C338.147,423.681,333.833,426.212,335.249,429.092L335.249,429.092z"/>
		</g>
	</g>
	<g>
		<g>
			<path d="M181.975,323.546c-20.032-12.088-43.867-17.225-67.095-14.168c-12.776,1.681-24.777,6.084-36.513,11.259
				c-9.92,4.374-19.689,9.241-28.285,15.918c-16.003,12.431-24.398,31.516-15.808,51.032c9.65,21.924,32.866,31.648,55.039,35.738
				c29.72,5.482,60.42,4.488,89.843-2.244c2.391-0.547,2.376-4.264,0-4.821c-2.664-0.625-5.329-1.25-7.993-1.875
				c-3.13-0.734-4.466,4.086-1.329,4.821c2.664,0.625,5.329,1.25,7.993,1.875c0-1.607,0-3.214,0-4.821
				c-23.73,5.429-48.204,6.971-72.42,4.378c-21.925-2.348-47.395-7.51-61.412-26.253c-6.275-8.39-9.832-19.069-7.726-29.528
				c1.836-9.121,7.696-16.669,14.648-22.583c7.147-6.079,15.539-10.639,23.997-14.611c10.626-4.99,21.62-9.595,33.136-12.072
				c24.343-5.235,50.152-0.551,71.402,12.272C182.213,329.53,184.729,325.208,181.975,323.546L181.975,323.546z"/>
		</g>
	</g>
	<g>
		<g>
			<path d="M335.918,597.588c-3.365-2.992-8.004-3.049-11.637-0.343c-4.346,3.237-4.86,9.159-4.058,14.111
				c1.927,11.892,10.411,24.76,21.809,29.519c11.91,4.974,20.101-10.278,23.082-19.449c3.591-11.051,2.36-24.677-7.457-32.143
				c-8.55-6.503-21.874-7.446-29.267,1.268c-2.07,2.44,1.45,5.994,3.536,3.536c5.801-6.838,15.968-5.93,22.681-0.852
				c8.954,6.774,8.644,19.583,4.888,29.113c-1.8,4.567-5.036,11.263-9.63,13.601c-5.69,2.896-12.174-3.272-15.821-7.311
				c-3.683-4.081-6.471-9.01-8.015-14.288c-0.693-2.368-1.259-4.855-1.138-7.335c0.15-3.083,3.277-9.639,7.492-5.891
				C334.78,603.256,338.329,599.732,335.918,597.588L335.918,597.588z"/>
		</g>
	</g>
	<g>
		<g>
			<path d="M55.413,439.746c-21.477,2.29-43.713,11.67-52.48,32.882c-9.28,22.456,5.17,41.237,19.541,57.271
				c16.359,18.251,33.796,36.016,54.678,49.117c19.172,12.027,40.972,19.325,63.446,21.769c25.677,2.792,51.692-1.076,75.46-11.136
				c1.837-0.777,1.411-3.422,0-4.317c-1.867-1.184-3.735-2.369-5.602-3.553c-2.725-1.728-5.237,2.597-2.524,4.317
				c1.867,1.184,3.735,2.369,5.602,3.553c0-1.439,0-2.878,0-4.317c-38.781,16.414-84.616,14.957-122.229-4.047
				c-19.385-9.794-35.972-24.103-51.037-39.578c-7.542-7.748-14.972-15.722-21.859-24.061c-6.906-8.362-13.395-18.215-13.583-29.438
				c-0.454-27.063,27.358-40.985,50.587-43.462C58.579,444.409,58.614,439.405,55.413,439.746L55.413,439.746z"/>
		</g>
	</g>
	<g>
		<g>
			<path d="M325.651,628.684c-8.438,14.305-25.564,18.175-41.088,18.232c-16.729,0.061-33.68-3.859-49.636-8.607
				c-33.952-10.102-65.684-27.642-92.388-50.908c-15.021-13.087-28.404-27.967-39.797-44.309c-1.827-2.621-6.164-0.125-4.317,2.524
				c21.53,30.883,49.956,56.626,82.718,75.167c16.118,9.122,33.256,16.507,50.974,21.902c16.807,5.117,34.786,9.286,52.447,9.232
				c17.343-0.054,36.044-4.838,45.405-20.708C331.607,628.429,327.287,625.911,325.651,628.684L325.651,628.684z"/>
		</g>
	</g>
	<g>
		<g>
			<path d="M183.091,524.087c3.031,25.037,17.041,47.524,38.327,61.112c0.892,0.57,2.31,0.402,3.03-0.391
				c13.086-14.418,8.697-35.386-1.508-50.055c-5.451-7.835-12.284-16.018-19.786-21.953c-5.467-4.325-14.019-8.075-19.465-1.765
				c-2.093,2.425,1.429,5.977,3.536,3.536c5.598-6.486,15.181,4.155,18.954,8.095c5.175,5.405,10.269,10.981,14.258,17.343
				c7.697,12.277,11.126,29.531,0.477,41.264c1.01-0.13,2.02-0.261,3.03-0.391c-19.66-12.551-33.043-33.606-35.85-56.795
				C187.709,520.933,182.705,520.895,183.091,524.087L183.091,524.087z"/>
		</g>
	</g>
</g>
</svg>