<!-- Generator: Adobe Illustrator 21.1.0, SVG Export Plug-In  -->
<svg version="1.1"
	 xmlns="http://www.w3.org/2000/svg" xmlns:xlink="http://www.w3.org/1999/xlink" xmlns:a="http://ns.adobe.com/AdobeSVGViewerExtensions/3.0/"
	 x="0px" y="0px" width="671.423px" height="498.844px" viewBox="0 0 671.423 498.844"
	 style="overflow:scroll;enable-background:new 0 0 671.423 498.844;" xml:space="preserve">
<defs>
</defs>
<g>
	<g>
		<g>
			<path d="M77.186,270.873c-22.366-24.641-46.997-47.054-73.568-67.085c-0.421,1.553-0.841,3.106-1.262,4.659
				c16.4,1.783,32.801,3.566,49.201,5.35c7.872,0.856,15.742,1.736,23.616,2.568c5.05,0.533,10.678,0.825,13.276-4.44
				c2.262-4.584,0.655-10.09-0.696-14.674c-2.22-7.534-4.501-15.05-6.751-22.575c-4.688-15.677-9.376-31.354-14.065-47.031
				c-1.025,1.025-2.05,2.05-3.075,3.075c13.481,4.408,27.054,8.525,40.724,12.305c6.828,1.888,13.673,3.801,20.569,5.426
				c4.103,0.967,8.777,1.847,12.824,0.176c10.436-4.31,5.089-19.288,3.738-27.35c-2.378-14.19-4.757-28.381-7.135-42.571
				c-1.224,0.941-2.448,1.882-3.673,2.823c15.775,7.195,32.008,13.234,48.667,18.044c1.475,0.426,3.279-0.785,3.165-2.411
				c-2.227-31.593-4.454-63.186-6.681-94.779c-1.423,0.589-2.845,1.179-4.268,1.768c29.474,23.839,58.523,48.197,87.133,73.065
				c0-1.179,0-2.357,0-3.536c-43.815,42.14-86.679,89.646-107.354,147.872c-5.703,16.06-9.386,32.717-10.964,49.685
				c-0.298,3.202,4.704,3.182,5,0c5.671-60.976,41.043-113.573,81.27-157.723c11.415-12.529,23.37-24.551,35.584-36.299
				c0.924-0.889,1.007-2.66,0-3.536c-28.611-24.868-57.659-49.227-87.133-73.065c-1.516-1.226-4.435-0.607-4.268,1.768
				c2.227,31.593,4.454,63.186,6.681,94.779c1.055-0.804,2.11-1.607,3.165-2.411c-16.242-4.69-32.091-10.525-47.473-17.54
				c-2.068-0.943-4.046,0.597-3.672,2.823c1.946,11.61,3.892,23.221,5.838,34.831c0.973,5.805,1.984,11.605,2.919,17.416
				c0.522,3.242,1.567,6.908-0.451,9.779c-1.713,2.437-4.141,2.659-7.004,2.415c-5.017-0.426-10.032-2.219-14.879-3.498
				c-5.61-1.48-11.206-3.014-16.786-4.602c-11.471-3.265-22.871-6.769-34.207-10.476c-1.809-0.591-3.606,1.302-3.075,3.075
				c3.938,13.169,7.876,26.337,11.814,39.506c2.063,6.898,4.126,13.796,6.188,20.694c1.636,5.472,4.68,11.883,4.416,17.695
				c-0.363,7.976-13.995,3.992-19.202,3.426c-6.888-0.749-13.776-1.498-20.664-2.247c-14.104-1.534-28.209-3.067-42.313-4.601
				c-2.767-0.301-2.976,3.367-1.262,4.659c26.22,19.767,50.488,41.991,72.556,66.303C75.818,276.796,79.346,273.252,77.186,270.873
				L77.186,270.873z"/>
		</g>
	</g>
	<g>
		<g>
			<path d="M202.399,330.66c30.136,41.684,83.031,67.76,133.969,50.504c24.422-8.273,44.041-25.404,55.018-48.783
				c11.369-24.214,16.194-52.471,18.091-79.01c1.761-24.624-0.156-50.232-10.231-73.046c-9.646-21.842-27.079-39.097-49.662-47.183
				c-21.378-7.655-45.819-7.092-66.719,1.837c-23.566,10.068-39.836,30.823-48.775,54.383
				c-11.247,29.643-10.407,61.992-7.194,93.036c2.574,24.871,4.56,53.17,19.88,74.035c3.379,4.602,7.349,8.531,11.87,12
				c2.552,1.958,5.044-2.383,2.524-4.317c-19.5-14.96-24.367-41.203-27.265-64.167c-3.739-29.625-6.988-60.445-0.652-89.947
				c5.188-24.157,17.082-48.435,37.845-62.861c18.203-12.647,41.642-16.885,63.32-12.894c22.089,4.066,41.203,16.513,53.427,35.413
				c12.809,19.805,17.076,43.806,17.202,67.058c0.134,24.575-3.755,49.705-10.643,73.277c-7.193,24.617-20.405,46.206-43.147,59.094
				c-23.427,13.277-51.786,15.905-77.484,8.274c-27.186-8.073-50.562-26.411-67.056-49.226
				C204.849,325.553,200.509,328.046,202.399,330.66L202.399,330.66z"/>
		</g>
	</g>
	<g>
		<g>
			<path d="M314.349,297.398c0.575,1.484-2.439,2.046-2.638,1.513c-0.582,1.025-1.164,2.05-1.746,3.075
				c2.632-0.354,5.274,3.221,4.235,5.634c0.498-0.383,0.996-0.766,1.494-1.149c-0.095,0.018-0.186-0.427-0.139-0.507
				c1.62-2.787-2.699-5.307-4.317-2.524c-3.564,6.132,7.036,11.938,8.088,4.096c0.821-6.125-4.814-11.162-10.689-10.372
				c-1.263,0.17-2.172,1.936-1.746,3.075c2.693,7.199,15.021,2.893,12.281-4.171C318.019,293.101,313.183,294.391,314.349,297.398
				L314.349,297.398z"/>
		</g>
	</g>
	<g>
		<g>
			<path d="M317.368,242.119c0.697,2.68,1.393,5.359,2.09,8.039c1.607-0.443,3.214-0.886,4.821-1.329
				c-0.269-0.684,0.825-1.469,0.911-1.344c0.074,0.107-0.086,0.592-0.17,0.747c-0.094,0.174-0.248,0.385-0.416,0.493
				c-0.235,0.151,0.168,0.071-0.082,0.02c-3.141-0.639-4.485,4.179-1.329,4.821c5.076,1.032,9.496-5.651,5.536-9.595
				c-3.962-3.947-11.285,1.064-9.27,6.187c1.151,2.927,5.651,1.86,4.821-1.329c-0.697-2.68-1.393-5.359-2.09-8.039
				C321.38,237.678,316.556,238.998,317.368,242.119L317.368,242.119z"/>
		</g>
	</g>
	<g>
		<g>
			<path d="M367.803,306.443c-1.709,4.954,0.857,9.507,5.523,11.414c0.78,0.319,1.881-0.057,2.432-0.643
				c12.29-13.078,9.451-35.658-5.662-45.315c-2.719-1.738-5.23,2.588-2.524,4.317c12.365,7.901,14.689,26.778,4.65,37.462
				c0.811-0.214,1.622-0.429,2.432-0.643c-2.298-0.94-2.727-3.244-2.031-5.264C373.676,304.724,368.848,303.415,367.803,306.443
				L367.803,306.443z"/>
		</g>
	</g>
	<g>
		<g>
			<path d="M412.053,199.053c3.217,0,3.223-5,0-5C408.836,194.053,408.83,199.053,412.053,199.053L412.053,199.053z"/>
		</g>
	</g>
	<g>
		<g>
			<path d="M416.027,199.129c27.11-38.39,64.228-75.413,111.459-86.427c5.657-1.319,11.402-2.237,17.194-2.692
				c6.314-0.496,15.342-1.804,18.963,4.726c5.325,9.604,0.135,24.946-4.301,33.949c-10.075,20.446-29.062,35.28-47.461,47.882
				c-26.932,18.447-54.734,35.718-82.107,53.504c-2.688,1.747-0.185,6.077,2.524,4.317c27.166-17.652,54.718-34.831,81.486-53.081
				c19.827-13.518,40.563-29.605,50.773-51.999c4.396-9.641,7.891-22.16,5.109-32.743c-3.466-13.18-16.979-12.433-28.01-11.279
				c-25.118,2.629-48.624,13.134-69.016,27.761c-24.011,17.223-43.949,39.512-60.93,63.558
				C409.85,199.239,414.184,201.74,416.027,199.129L416.027,199.129z"/>
		</g>
	</g>
	<g>
		<g>
			<path d="M396.651,384.325c-1.027,23.181,5.783,46.525,19.437,65.338c7.211,9.936,16.232,18.134,25.884,25.647
				c9.285,7.227,18.928,14.176,29.814,18.801c10.001,4.25,21.19,6.363,31.832,3.245c9.484-2.778,17.245-9.426,22.496-17.681
				c13.411-21.082,8.069-47.235-0.095-69.19c-9.636-25.914-24.094-49.754-42.4-70.454c-1.695-1.917-4.815,0.118-4.178,2.432
				c0.726,2.639,1.452,5.277,2.177,7.916c0.852,3.099,5.677,1.783,4.821-1.329c-0.726-2.639-1.452-5.278-2.177-7.916
				c-1.393,0.811-2.786,1.622-4.178,2.432c14.798,16.733,27.02,35.612,36.125,56.018c9.125,20.451,18.018,45.464,10.345,67.71
				c-3.123,9.054-9.068,17.474-17.459,22.318c-9.843,5.682-21.366,5.015-31.77,1.326c-10.26-3.639-19.493-9.853-28.139-16.353
				c-9.057-6.809-17.917-14.089-25.189-22.832c-15.592-18.746-23.422-43.151-22.346-67.429
				C401.794,381.108,396.794,381.115,396.651,384.325L396.651,384.325z"/>
		</g>
	</g>
	<g>
		<g>
			<path d="M507.668,468.681c-0.623,11.08,5.795,21.583,15.528,26.778c9.746,5.203,21.386,3.868,30.227-2.573
				c19.182-13.974,16.305-42.565-3.258-54.822c-4.624-2.897-11.535-5.539-16.472-1.862c-3.909,2.911-4.589,8.091-1.563,11.784
				c2.041,2.49,5.56-1.065,3.536-3.536c-1.503-1.835,0.245-3.292,1.775-4.148c1.975-1.105,3.374-0.91,5.501-0.249
				c2.433,0.756,4.734,2.234,6.746,3.762c3.877,2.943,6.976,6.817,9.112,11.186c4.686,9.583,3.726,20.971-3.245,29.18
				c-6.413,7.552-16.93,11.727-26.58,8.383c-9.987-3.461-16.899-13.325-16.305-23.884
				C512.849,465.466,507.848,465.477,507.668,468.681L507.668,468.681z"/>
		</g>
	</g>
	<g>
		<g>
			<path d="M563.639,118.004c-1.014,4.648,1.475,8.96,5.983,10.613c6.119,2.245,12.283-1.898,16.528-5.987
				c7.811-7.526,15.948-22.655,11.933-33.814c-3.982-11.066-22-9.596-30.906-7.105c-10.365,2.899-19.903,10.557-21.296,21.749
				c-1.305,10.493,4.219,22.219,15.233,24.491c3.14,0.648,4.483-4.171,1.329-4.821c-8.716-1.798-12.829-11.202-11.588-19.477
				c1.503-10.021,11.173-15.935,20.386-17.778c4.942-0.989,10.574-1.191,15.504,0.01c7.455,1.815,7.7,7.692,6.373,14.16
				c-1.138,5.545-3.603,10.778-7.077,15.238c-1.807,2.32-3.875,4.458-6.252,6.198c-1.478,1.082-3.192,2.237-5.041,2.584
				c-2.816,0.528-7.148-0.799-6.29-4.732C569.145,116.196,564.326,114.856,563.639,118.004L563.639,118.004z"/>
		</g>
	</g>
	<g>
		<g>
			<path d="M559.277,439.863c12.281,17.77,31.312,32.863,54.141,30.262c23.418-2.667,33.127-23.213,40.215-43.046
				c8.807-24.642,16.627-50.095,17.678-76.427c0.871-21.815-3.377-43.711-11.871-63.794c-9.808-23.189-25.213-43.799-44.942-59.471
				c-1.71-1.358-4.116-0.518-4.268,1.768c-0.147,2.207-0.293,4.413-0.44,6.62c-0.214,3.212,4.787,3.199,5,0
				c0.147-2.207,0.293-4.413,0.44-6.62c-1.423,0.589-2.845,1.179-4.268,1.768c31.878,25.323,52.418,63.961,55.146,104.651
				c1.573,23.465-3.245,46.666-10.158,68.976c-3.301,10.652-6.817,21.366-11.083,31.676c-4.011,9.693-9.524,19.513-18.935,24.847
				c-23.576,13.361-49.08-4.549-62.337-23.733C561.777,434.71,557.442,437.207,559.277,439.863L559.277,439.863z"/>
		</g>
	</g>
	<g>
		<g>
			<path d="M595.945,112.102c15.816,0.553,27.132,12.684,34.582,25.566c8.33,14.403,13.096,31.051,16.701,47.197
				c7.822,35.035,7.807,71.806,0.188,106.874c-4.3,19.79-11.044,38.966-20.084,57.086c-1.432,2.871,2.879,5.406,4.317,2.524
				c16.966-34.003,25.98-71.661,26.432-109.658c0.225-18.956-1.663-37.959-5.666-56.491c-3.746-17.347-8.874-35.282-17.935-50.676
				c-8.389-14.252-21.136-26.814-38.534-27.422C592.727,106.99,592.731,111.99,595.945,112.102L595.945,112.102z"/>
		</g>
	</g>
	<g>
		<g>
			<path d="M572.287,287.292c20.546-14.654,33.51-37.748,35.264-62.931c0.074-1.055-0.826-2.167-1.835-2.411
				c-20.314-4.906-36.877,11.132-44.617,28.285c-3.895,8.63-17.998,39.294-0.581,42.826c3.141,0.637,4.485-4.181,1.329-4.821
				c-6.623-1.343-4.699-11.177-3.383-15.809c2.185-7.689,4.776-15.488,8.36-22.644c6.935-13.844,20.816-27.061,37.563-23.016
				c-0.612-0.804-1.224-1.607-1.835-2.411c-1.622,23.288-13.775,45.054-32.788,58.614
				C567.166,284.827,569.66,289.165,572.287,287.292L572.287,287.292z"/>
		</g>
	</g>
</g>
</svg>