<!-- Generator: Adobe Illustrator 21.1.0, SVG Export Plug-In  -->
<svg version="1.1"
	 xmlns="http://www.w3.org/2000/svg" xmlns:xlink="http://www.w3.org/1999/xlink" xmlns:a="http://ns.adobe.com/AdobeSVGViewerExtensions/3.0/"
	 x="0px" y="0px" width="2849.322px" height="545.154px" viewBox="0 0 2849.322 545.154"
	 style="overflow:scroll;enable-background:new 0 0 2849.322 545.154;" xml:space="preserve">
<defs>
</defs>
<g>
	<g>
		<path d="M83.57,265.925c18.102-6.869,32.173-19.911,44.37-34.609c12.807-15.432,24.364-32.014,35.096-48.941
			c22.117-34.884,40.194-72.334,53.89-111.299c7.817-22.24,14.146-44.975,19.026-68.037c0.645-3.047-3.908-4.354-4.699-1.296
			c-16.872,65.187-33.903,131.518-33.993,199.306c-0.045,33.703,5.433,66.401,12.805,99.185
			c7.033,31.274,14.872,62.786,15.241,95.019c0.32,27.881-4.652,56.752-19.608,80.712c-15.798,25.309-41.914,40.875-69.376,50.871
			c-28.988,10.551-63.099,19.503-93.278,8.71C19.365,527.077-1.804,500.103,6.615,474.1c8.141-25.141,40.266-35.547,64.036-29.357
			c11.503,2.996,25.829,11.557,25.858,25.105c0.012,5.665-3.238,11.05-7.425,14.674c-3.835,3.319-10.764,6.562-15.669,3.397
			c-2.768-1.787-2.063-6.156-2.328-9.166c-0.381-4.327-0.86-8.646-1.297-12.967c-0.24-2.368-3.87-2.472-3.777,0
			c0.163,4.322,0.286,8.648,0.505,12.967c0.159,3.129-0.606,8.332,1.245,10.945c2.658,3.752,9.126,4.604,13.229,3.958
			c10.29-1.62,19.085-11.53,20.18-21.751c1.294-12.083-8.274-22.467-18.304-27.636c-11.782-6.071-25.523-7.263-38.443-4.915
			c-25.751,4.679-48.127,25.624-43.912,53.386c4.366,28.749,30.789,47.852,58.171,51.524c17.152,2.3,34.582-0.115,51.267-4.262
			c15.649-3.89,31.124-9.082,45.734-15.935c28.256-13.255,51.125-34.088,63.156-63.244c27.088-65.644-1.185-135.448-12.105-201.179
			c-12.757-76.792,3.209-154.068,21.996-228.46c2.371-9.391,4.794-18.768,7.221-28.144c-1.566-0.432-3.133-0.864-4.699-1.296
			c-16.621,78.552-50.669,153.291-99.448,217.112c-13.265,17.355-28.593,34.736-49.348,43.036
			C80.002,262.873,81.031,266.888,83.57,265.925L83.57,265.925z"/>
	</g>
</g>
<g>
	<g>
		<path d="M266.979,480.03c73.427-62.679,130.961-142.792,168.393-231.719c17.331-41.172,33.216-86.37,38.745-130.915
			c1.838-14.806-4.412-33.707-22.88-30.076c-20.432,4.017-31.503,26.584-39.961,43.129c-24.009,46.961-41.969,97.017-53.349,148.514
			c-5.523,24.992-9.492,50.325-11.897,75.806c-2.373,25.143-5.452,52.869,4.156,76.933c13.326,33.376,49.153,50.724,83.488,52.332
			c41.426,1.941,77.998-20.209,105.179-49.988c36.459-39.944,60.361-92.227,78.201-142.735
			c20.158-57.073,31.136-117.112,32.89-177.595c0.06-2.076-2.623-3.098-4.047-1.676c-59.964,59.868-99.19,139.1-111.353,222.915
			c-5.53,38.107-8.011,81.281,2.156,118.864c4.637,17.141,14.214,33.404,31.356,40.312c14.64,5.899,31.039,3.518,45.286-2.345
			c44.127-18.159,61.127-67.61,101.524-90.706c-0.965-1.251-1.931-2.502-2.896-3.753c-23.18,29.182,4.835,71.867,37.929,76.761
			c44.003,6.506,73.92-41.484,77.584-79.267c0.241-2.485-3.295-3.073-4.451-1.206c-22.976,37.11,5.215,85.915,46.449,91.689
			c23.347,3.269,47.717-5.328,65.047-21.023c21.987-19.913,29.25-53.189,56.09-68.139c4.871-2.713,23.018-10.422,27.265-3.714
			c2.837,4.481-4.428,20.345-6.349,24.175c-7.535,15.029-20.689,26.366-36.664,31.515c-2.36,0.761-2.417,4.111,0,4.85
			c56.545,17.287,115.982-4.919,159.021-42.598c49.911-43.694,74.316-107.014,86.603-170.756
			c7.483-38.819,10.915-78.275,14.214-117.624c-1.657,0-3.314,0-4.971,0c2.884,123.411,5.658,246.824,8.464,370.237
			c1.587-0.215,3.175-0.43,4.762-0.644c-6.18-24.909-15.317-48.761-27.321-71.441c-0.551-1.041-1.686-1.257-2.734-1.113
			c-6.525,0.9-10.123,6.761-9.891,13.153c0.272,7.459,5.686,12.28,12.413,14.624c19.369,6.747,46.197,0.335,64.871-6.174
			c41.648-14.517,76.109-46.008,93.239-86.72c0.528-1.255-0.583-2.639-1.705-3.004c-16.13-5.239-33.402,3.956-38.337,20.108
			c-0.395,1.293,0.472,2.637,1.712,3.016c49.361,15.096,102.847,10.164,148.664-13.583c-1.135-1.135-2.269-2.269-3.404-3.404
			c-15.377,20.81-30.859,47.752-24.57,74.667c4.762,20.381,21.884,33.94,41.735,38.389c53.328,11.953,90.226-34.306,117.678-72.632
			c-1.52-0.641-3.041-1.282-4.561-1.923c-17.885,50.829,45.404,106.58,90.806,70.92c18.396-14.449,28.626-39.593,24.849-62.771
			c-3.891-23.88-23.293-40.479-46.672-44.186c-25.824-4.095-54.013,6.595-66.497,30.384c-0.76,1.448-0.092,3.142,1.479,3.637
			c55.09,17.325,116.393,7.151,162.928-27.053c-1.217-0.936-2.435-1.872-3.652-2.808c-6.573,36.242,4.226,73.429,29.369,100.385
			c0.966,1.036,2.666,0.936,3.647,0c80.741-76.991,138.848-176.7,166.433-284.795c7.712-30.219,12.921-61.005,15.791-92.055
			c-1.719,0-3.438,0-5.158,0c2.183,125.592-2.332,251.122-12.851,376.283c1.665-0.225,3.33-0.451,4.995-0.676
			c-3.844-16.616-7.707-33.227-11.513-49.852c-1.008,1.008-2.017,2.017-3.025,3.025c58.55,20.119,124.788,8.342,173.063-30.299
			c-1.399-0.814-2.797-1.628-4.196-2.443c-6.583,29.431,6.05,61.806,32.138,77.639c26.953,16.357,62.874,11.382,85.73-9.656
			c2.448-2.253-1.207-5.893-3.647-3.647c-21.198,19.512-54.533,24.044-79.514,8.91c-24.114-14.609-35.928-44.704-29.865-71.91
			c0.576-2.587-2.275-3.982-4.196-2.443c-46.871,37.577-111.451,48.572-168.205,29.106c-1.864-0.639-3.419,1.311-3.025,3.025
			c3.816,16.625,7.574,33.263,11.351,49.896c0.673,2.963,4.757,2.027,4.995-0.676c11.015-125.07,15.104-250.757,12.922-376.283
			c-0.059-3.371-4.857-3.258-5.158,0c-10.089,109.134-51.275,214.691-117.278,302.164c-19.156,25.387-40.424,49.094-63.436,71.038
			c1.216,0,2.431,0,3.647,0c-23.86-25.58-34.406-60.957-28.221-95.416c0.337-1.875-1.727-4.228-3.652-2.808
			c-45.488,33.563-105.175,43.538-159.102,26.572c0.493,1.212,0.986,2.424,1.479,3.637c12.709-24.211,42.992-33.695,68.541-26.454
			c28.904,8.192,41.887,37.266,33.454,65.23c-8.432,27.962-36.222,49.275-65.841,39.257c-29.143-9.857-48.513-43.974-38.103-73.551
			c1.002-2.846-3.023-4.069-4.561-1.923c-24.888,34.74-57.119,77.273-105.336,71.496c-20.58-2.466-40.187-14.787-44.963-36.059
			c-5.753-25.628,9.442-51.041,24.062-70.831c1.591-2.153-1.4-4.442-3.404-3.404c-44.666,23.156-96.743,27.839-144.849,13.151
			c0.571,1.005,1.141,2.011,1.712,3.016c4.175-13.687,18.767-21.095,32.311-16.703c-0.568-1.001-1.137-2.002-1.705-3.004
			c-16.952,40.339-52.266,71.538-93.884,84.7c-12.378,3.914-64.163,16.957-66.922-4.405c-0.343-2.656,0.923-9.353,5.13-7.122
			c1.333,0.707,4.193,8.352,4.846,9.726c3.022,6.353,5.806,12.818,8.366,19.371c4.839,12.383,8.722,25.089,11.921,37.988
			c0.655,2.642,4.824,2.101,4.762-0.644c-2.796-123.412-5.623-246.823-8.342-370.237c-0.071-3.24-4.703-3.151-4.971,0
			c-5.529,64.91-11.291,131.458-35.923,192.44c-22.934,56.78-64.929,106.413-123.141,128.81
			c-30.428,11.707-63.072,14.159-94.466,4.878c0,1.617,0,3.233,0,4.85c27.345-8.926,46.221-34.548,46.534-63.334
			c0.012-1.06-0.759-2.046-1.772-2.328c-22.156-6.161-42.399,8.103-55.173,25.18c-17.317,23.15-27.686,49.655-55.818,62.084
			c-24.203,10.694-54.62,9.027-73.583-10.944c-16.98-17.882-22.53-46.125-9.239-67.6c-1.484-0.402-2.967-0.804-4.451-1.206
			c-3.303,34.123-28.011,75.315-66.621,74.977c-31.157-0.273-62.844-41.26-40.736-69.091c1.599-2.013-0.373-5.196-2.896-3.753
			c-31.918,18.246-48.029,52.285-75.723,75.146c-14.879,12.282-34.714,22.225-54.5,20.527c-22.288-1.913-35.46-19.889-40.912-40.08
			c-10.03-37.147-7.525-80.203-1.929-117.878c5.76-38.786,17.335-76.742,34.208-112.137c18.948-39.749,44.497-76.021,75.653-107.137
			c-1.349-0.559-2.698-1.118-4.047-1.676c-2.759,95.672-28.757,193.097-78.807,275.114c-21.948,35.966-52.113,71.349-93.296,85.206
			c-34.038,11.453-76.867,5.341-102.942-20.582c-16.096-16.002-21.465-37.431-21.619-59.635c-0.17-24.519,2.757-49.373,6.45-73.573
			c7.214-47.268,19.964-93.695,37.843-138.039c9.076-22.51,19.144-45.261,31.501-66.194c5.123-8.679,12.575-17.336,21.772-21.875
			c6.249-3.084,13.791-3.739,19.034,1.672c6.015,6.207,5.118,16.028,3.913,23.76c-6.438,41.315-19.796,82.454-35.539,121.077
			c-36.992,90.755-95.528,172.146-168.902,237.013C262.985,479.098,265.353,481.418,266.979,480.03L266.979,480.03z"/>
	</g>
</g>
<g>
	<g>
		<path d="M2169.796,297.633c5.873-2.948,12.644-1.999,18.141,1.377c5.985,3.676,7.701,8.53,9.397,14.94
			c0.521,1.972,3.896,2.224,4.249,0c1.232-7.756-4.9-15.375-11.186-19.148c-6.989-4.194-15.553-4.796-22.763-0.868
			C2165.197,295.26,2167.345,298.862,2169.796,297.633L2169.796,297.633z"/>
	</g>
</g>
<g>
	<g>
		<path d="M2314.403,394.873c-20.386-1.711-35.585,19.186-35.281,38.161c0.379,23.651,23.774,35.041,44.868,32.422
			c25.487-3.165,49.687-19.496,65.057-39.612c7.887-10.322,14.277-23.211,13.152-36.549c-1.015-12.029-8.116-22.228-18.313-28.411
			c-27.366-16.59-66.106-8.297-92.86,5.135c-1.879,0.943-1.112,3.461,0.534,4.087c35.667,13.563,74.059,19.426,112.155,17.316
			c18.553-1.028,37.029-3.916,54.998-8.651c9.16-2.414,18.19-5.32,27.037-8.706c3.951-1.512,7.865-3.121,11.74-4.818
			c4.721-2.067,10.754-5.626,15.799-2.557c7.875,4.79,6.395,16.971,4.929,24.465c-1.726,8.821-3.501,17.865,1.178,26.09
			c0.815,1.432,2.716,1.547,3.868,0.498c17.142-15.605,36.088-33.068,59.928-36.694c10.322-1.57,21.506-0.468,30.928,4.208
			c10.443,5.183,15.613,13.844,20.361,24.069c4.194,9.03,9.257,17.203,18.46,21.771c8.784,4.359,18.918,5.076,28.559,4.379
			c10.818-0.782,21.376-3.31,31.936-5.645c13.811-3.054,27.622-6.107,41.433-9.161c31.139-6.885,62.339-13.583,93.241-21.474
			c2.126-0.543,1.21-3.646-0.896-3.25c-28.467,5.341-56.735,11.697-85.011,17.954c-14.131,3.127-28.263,6.254-42.394,9.381
			c-11.93,2.64-23.914,5.846-36.111,6.991c-10.26,0.963-21.484,0.688-30.564-4.779c-10.671-6.424-13.295-18.56-19.27-28.599
			c-10.21-17.155-30.979-23.331-49.957-20.92c-25.579,3.249-45.844,21.624-64.126,38.288c1.289,0.166,2.579,0.332,3.868,0.498
			c-5.093-8.939-0.77-19.1,0.396-28.489c0.776-6.244,0.08-13.205-3.272-18.667c-3.527-5.747-9.707-8.042-16.224-6.406
			c-4.13,1.037-7.993,3.206-11.891,4.867c-5.089,2.168-10.254,4.163-15.474,5.995c-37.787,13.258-78.406,17.784-118.21,13.592
			c-22.662-2.387-44.928-7.774-66.226-15.858c0.178,1.362,0.356,2.725,0.534,4.087c22.712-11.42,51.56-17.825,76.509-10.345
			c10.489,3.144,20.439,9.342,25.239,19.542c5.466,11.617,2.437,24.586-3.591,35.32c-11.37,20.246-32.105,36.264-54.017,43.591
			c-18.387,6.148-45.419,5.752-52.856-16.365c-6.672-19.84,8.972-43.933,29.835-45.553
			C2315.174,396.012,2315.173,394.938,2314.403,394.873L2314.403,394.873z"/>
	</g>
</g>
</svg>