<svg id="Ebene_1" data-name="Ebene 1" xmlns="http://www.w3.org/2000/svg" viewBox="0 0 273.962 273.962">
  <defs>
    <style>
      .cls-1, .cls-5, .cls-6, .cls-7 {
        fill: #da000d;
      }

      .cls-1, .cls-2, .cls-4, .cls-6, .cls-7, .cls-8 {
        stroke: #da000d;
        stroke-miterlimit: 10;
      }

      .cls-1, .cls-2, .cls-4 {
        stroke-width: 7px;
      }

      .cls-2, .cls-3 {
        fill: #fff;
      }

      .cls-4, .cls-8 {
        fill: none;
      }

      .cls-6 {
        stroke-width: 2px;
      }

      .cls-8 {
        stroke-width: 5px;
      }
    </style>
  </defs>
  <title>wildcats with handicaps_Druck_CMYK</title>
  <circle id="_Path_" data-name="&lt;Path&gt;" class="cls-1" cx="136.981" cy="136.981" r="133.481"/>
  <circle id="_Path_2" data-name="&lt;Path&gt;" class="cls-2" cx="135.981" cy="136.981" r="92.734"/>
  <g id="_Group_" data-name="&lt;Group&gt;">
    <path class="cls-3" d="M409.638,208.761,387.5,194.206l3.879-3.649,14.958,10.231-8.7-16.121,4.507-4.239,15.624,10.016-9.452-15.82,3.815-3.59,13.1,23.058-4.02,3.782-16.939-10.516,9.474,17.537Z" transform="translate(-348.859 -137.179)"/>
    <path class="cls-3" d="M432.822,189.5l-13.14-22.168,4.476-2.653,13.14,22.168Z" transform="translate(-348.859 -137.179)"/>
    <path class="cls-3" d="M442.29,183.905l-9.184-23.853,4.856-1.869,7.623,19.8,12.074-4.648,1.56,4.052Z" transform="translate(-348.859 -137.179)"/>
    <path class="cls-3" d="M459.358,150.9l9.432-1.214a18.572,18.572,0,0,1,4.927-.138,8.62,8.62,0,0,1,4.156,1.858,11.274,11.274,0,0,1,2.974,3.826,19.019,19.019,0,0,1,1.614,5.934,16.972,16.972,0,0,1-.084,5.541,11.364,11.364,0,0,1-2.157,4.867,9.154,9.154,0,0,1-3.364,2.507,15.741,15.741,0,0,1-4.5,1.128l-9.711,1.25Zm5.717,3.659,2.178,16.929,3.853-.5a14.165,14.165,0,0,0,3.089-.646,4.8,4.8,0,0,0,1.947-1.331,5.466,5.466,0,0,0,1.034-2.641,16.819,16.819,0,0,0-.08-4.749,15.426,15.426,0,0,0-1.108-4.483,5.913,5.913,0,0,0-1.783-2.287,4.954,4.954,0,0,0-2.543-.9,23.6,23.6,0,0,0-4.268.3Z" transform="translate(-348.859 -137.179)"/>
    <path class="cls-3" d="M505.734,166.473l4.8,2.219a11.314,11.314,0,0,1-4.613,5.733,12.141,12.141,0,0,1-14.98-3.362q-2.839-3.894-2.077-9.928.807-6.382,4.548-9.5a11.394,11.394,0,0,1,9.114-2.437,10.719,10.719,0,0,1,7.271,3.735,10.174,10.174,0,0,1,2.021,5.039l-5.264.575a5.325,5.325,0,0,0-4.848-4.971,5.864,5.864,0,0,0-4.87,1.458q-2.029,1.816-2.6,6.386-.614,4.849.871,7.127a5.7,5.7,0,0,0,4.273,2.63,5.21,5.21,0,0,0,3.706-.86A7.652,7.652,0,0,0,505.734,166.473Z" transform="translate(-348.859 -137.179)"/>
    <path class="cls-3" d="M535.083,186.327l-5.249-2.117.1-6.271-9.553-3.852-4.162,4.634-5.119-2.064,18.945-20.146,5.1,2.058Zm-5.072-13.038.282-10.2-6.8,7.567Z" transform="translate(-348.859 -137.179)"/>
    <path class="cls-3" d="M539.875,190.143l12.059-17.691-6.318-4.307,2.456-3.6,16.921,11.533-2.455,3.6-6.3-4.3-12.059,17.691Z" transform="translate(-348.859 -137.179)"/>
    <path class="cls-3" d="M558.209,192.975l3.791,3.39a6.181,6.181,0,0,0-1.5,3.9,5.614,5.614,0,0,0,1.676,3.583,5.794,5.794,0,0,0,3.349,2.065,3.164,3.164,0,0,0,2.693-.748,2.355,2.355,0,0,0,.781-1.448,4.3,4.3,0,0,0-.448-2.133q-.387-.888-2-3.827a14.142,14.142,0,0,1-2.1-6.045,6.707,6.707,0,0,1,2.206-5.259,6.628,6.628,0,0,1,3.465-1.674,6.992,6.992,0,0,1,4.1.6,12.889,12.889,0,0,1,4.095,3.122q3.287,3.568,3.385,6.813a7.509,7.509,0,0,1-2.432,5.741l-3.693-3.672a4.42,4.42,0,0,0,1.131-2.989,5.252,5.252,0,0,0-1.594-3.014,5.95,5.95,0,0,0-3.091-1.98,1.877,1.877,0,0,0-1.735.477,1.975,1.975,0,0,0-.627,1.629q.059,1.283,1.973,4.684a25.273,25.273,0,0,1,2.441,5.387,7.238,7.238,0,0,1,0,3.869,8.111,8.111,0,0,1-6.206,5.443,7.366,7.366,0,0,1-4.472-.612,14.586,14.586,0,0,1-4.491-3.487q-3.312-3.595-3.425-7.051A9.821,9.821,0,0,1,558.209,192.975Z" transform="translate(-348.859 -137.179)"/>
  </g>
  <g id="_Group_2" data-name="&lt;Group&gt;">
    <path class="cls-3" d="M371.113,309.771l15.792-10.8,1.375,3.593-10.936,7.19,13.156-1.393,1.6,4.173-10.974,7.7,13.162-1.98,1.353,3.533-19,2.434-1.425-3.724,11.669-8.437-14.315,1.524Z" transform="translate(-348.859 -137.179)"/>
    <path class="cls-3" d="M382.953,335.68l15.817-9.809,1.98,3.194-15.817,9.808Z" transform="translate(-348.859 -137.179)"/>
    <path class="cls-3" d="M392.731,349.647l11.854-9.929-3.546-4.234,2.414-2.021,9.5,11.339-2.414,2.021L407,342.6l-11.854,9.929Z" transform="translate(-348.859 -137.179)"/>
    <path class="cls-3" d="M405.487,363.394l11.576-14.573,2.942,2.338-4.556,5.735,5.766,4.58,4.556-5.736,2.942,2.338-11.576,14.573-2.942-2.338,5.062-6.372-5.766-4.58-5.062,6.372Z" transform="translate(-348.859 -137.179)"/>
    <path class="cls-3" d="M437.185,383.973l6.466-17.452,3.524,1.306-2.545,6.868,6.9,2.559,2.545-6.869,3.524,1.306-6.466,17.452-3.524-1.306,2.828-7.631-6.9-2.558-2.827,7.63Z" transform="translate(-348.859 -137.179)"/>
    <path class="cls-3" d="M478.861,394.167l-4.051-.548-1.044-4.407-7.372-1L464.3,392.2l-3.95-.534,9.676-17.473,3.938.532Zm-5.871-8.224-1.617-7.187-3.416,6.508Z" transform="translate(-348.859 -137.179)"/>
    <path class="cls-3" d="M488.35,394.21l-1.525-18.549,3.644-.3,8.61,11.763-1.02-12.387,3.48-.286L503.064,393l-3.758.309-8.473-11.48.994,12.1Z" transform="translate(-348.859 -137.179)"/>
    <path class="cls-3" d="M508.813,373.065l6.558-2.042a13.36,13.36,0,0,1,3.487-.714,6.22,6.22,0,0,1,3.188.8,8.133,8.133,0,0,1,2.594,2.35,13.746,13.746,0,0,1,1.89,4.02,12.207,12.207,0,0,1,.633,3.951,8.22,8.22,0,0,1-.925,3.732,6.605,6.605,0,0,1-2.08,2.2,11.381,11.381,0,0,1-3.059,1.365l-6.752,2.1Zm4.524,1.889L517,386.724l2.678-.834a10.243,10.243,0,0,0,2.117-.846,3.469,3.469,0,0,0,1.219-1.19,3.94,3.94,0,0,0,.4-2.008,12.126,12.126,0,0,0-.649-3.368,11.134,11.134,0,0,0-1.349-3.05,4.263,4.263,0,0,0-1.555-1.4,3.573,3.573,0,0,0-1.921-.319,17.018,17.018,0,0,0-3,.748Z" transform="translate(-348.859 -137.179)"/>
    <path class="cls-3" d="M537.47,382.358l-8.282-16.667,3.365-1.672,8.282,16.667Z" transform="translate(-348.859 -137.179)"/>
    <path class="cls-3" d="M554.94,363.689l3.638-1.173a8.177,8.177,0,0,1,.357,5.3,8.771,8.771,0,0,1-9.6,5.548,9.69,9.69,0,0,1-5.963-4.256q-2.7-3.784-2.234-7.27a8.227,8.227,0,0,1,3.646-5.755,7.744,7.744,0,0,1,5.689-1.576,7.353,7.353,0,0,1,3.541,1.687L551.5,359.08a3.847,3.847,0,0,0-5.008-.268,4.237,4.237,0,0,0-1.873,3.158q-.187,1.958,1.743,4.667,2.049,2.874,3.951,3.357a4.125,4.125,0,0,0,3.558-.7,3.772,3.772,0,0,0,1.547-2.271A5.535,5.535,0,0,0,554.94,363.689Z" transform="translate(-348.859 -137.179)"/>
    <path class="cls-3" d="M581.072,347.518l-2.738,3.035-4.229-1.625-4.982,5.523,2.109,3.973-2.67,2.96L559.6,343.535l2.661-2.951Zm-10.1.205L564.124,345l3.444,6.492Z" transform="translate(-348.859 -137.179)"/>
    <path class="cls-3" d="M586.321,339.854l-16.12-9.3,3.014-5.223a21.947,21.947,0,0,1,2.476-3.731,4.875,4.875,0,0,1,2.917-1.409,5.776,5.776,0,0,1,3.678.877,6.061,6.061,0,0,1,2.186,1.979,5.087,5.087,0,0,1,.8,2.286,5.434,5.434,0,0,1-.209,2.129,21.532,21.532,0,0,1-1.717,3.509l-1.225,2.122,6.08,3.509Zm-11.515-10.982,4.574,2.64,1.027-1.782a9.713,9.713,0,0,0,1.232-2.719,2.472,2.472,0,0,0-.205-1.474,2.5,2.5,0,0,0-1.041-1.092,2.4,2.4,0,0,0-1.75-.321,2.6,2.6,0,0,0-1.469.9,18.1,18.1,0,0,0-1.462,2.278Z" transform="translate(-348.859 -137.179)"/>
    <path class="cls-3" d="M591.522,317.129l.806-3.584a4.459,4.459,0,0,0,2.988-.426,4.052,4.052,0,0,0,1.672-2.316,4.192,4.192,0,0,0,.126-2.839,2.283,2.283,0,0,0-1.419-1.437,1.693,1.693,0,0,0-1.187.017,3.1,3.1,0,0,0-1.189,1.032q-.422.555-1.713,2.6a10.2,10.2,0,0,1-3.074,3.451,4.844,4.844,0,0,1-4.094.456,4.776,4.776,0,0,1-2.273-1.6,5.043,5.043,0,0,1-1.064-2.8,9.314,9.314,0,0,1,.531-3.682,7.854,7.854,0,0,1,3.109-4.529,5.423,5.423,0,0,1,4.477-.484l-1.02,3.621a3.189,3.189,0,0,0-2.283.338,3.793,3.793,0,0,0-1.341,2.063,4.3,4.3,0,0,0-.163,2.646,1.357,1.357,0,0,0,.91.929,1.43,1.43,0,0,0,1.248-.178,9.857,9.857,0,0,0,2.262-2.891,18.352,18.352,0,0,1,2.541-3.434,5.228,5.228,0,0,1,2.44-1.361,5.534,5.534,0,0,1,3.048.223,5.472,5.472,0,0,1,2.568,1.781,5.326,5.326,0,0,1,1.185,3.036,10.547,10.547,0,0,1-.622,4.06,8.068,8.068,0,0,1-3.245,4.639A7.094,7.094,0,0,1,591.522,317.129Z" transform="translate(-348.859 -137.179)"/>
  </g>
  <path id="_Path_3" data-name="&lt;Path&gt;" class="cls-4" d="M485.393,340.332a21.249,21.249,0,0,1-6.5-1.008,22.607,22.607,0,0,1-8.224-4.156,16.494,16.494,0,0,1-5.091-7.378,10.945,10.945,0,0,1-.564-2.518c-.066-.732-.115-1.462-.221-2.19a22.087,22.087,0,0,0-1.106-4.44,17.828,17.828,0,0,0-2.058-4.016q-.339-.49-.714-.953c-.226-.279-.416-.584-.647-.858A17.55,17.55,0,0,0,458.383,311c-2.65-2.329-5.505-4.441-8.342-6.535-1.422-1.05-2.869-2.066-4.29-3.117a17.632,17.632,0,0,1-3.348-3.354c-4.111-5.255-5.569-12.053-5.594-18.607a44.015,44.015,0,0,1,.307-5.368c.1-.881.226-1.765.4-2.636.042-.212.19-.432,0-.586-.2-.168-.457-.283-.666-.457a26.031,26.031,0,0,1-3.473-3.751c-.55-.685-1.085-1.383-1.585-2.1a6.7,6.7,0,0,1-.6-.984,9.534,9.534,0,0,1-.384-1.108q-.412-1.285-.815-2.572l-.438-1.394a8.41,8.41,0,0,0-.366-1.092,30.394,30.394,0,0,0-2.857-3.955,30.16,30.16,0,0,1-4.565-8.949,14.253,14.253,0,0,1,.409-9.511,9.494,9.494,0,0,1,2.607-3.629,6.744,6.744,0,0,1,4.489-1.172,22.449,22.449,0,0,1,5.071.865,44.682,44.682,0,0,1,4.911,1.638q1.2.476,2.386,1.006a15.038,15.038,0,0,1,2.156,1.034,5.336,5.336,0,0,0,2.256.866,9.444,9.444,0,0,0,2.524-.008,14.682,14.682,0,0,0,2.485-.559,8.2,8.2,0,0,0,1.107-.385,6.424,6.424,0,0,0,.9-.59,46.116,46.116,0,0,1,4.469-2.7,47.96,47.96,0,0,1,9.415-4,29.669,29.669,0,0,1,10.276-1.307,18.6,18.6,0,0,1,4.94.932,11.658,11.658,0,0,1,1.159.468,3.636,3.636,0,0,0,.541.261,1.5,1.5,0,0,0,.446.021,3.553,3.553,0,0,0,1.133-.032c.329-.118.64-.323.965-.458a20.7,20.7,0,0,1,9.994-1.091,36.629,36.629,0,0,1,9.941,2.627,57.481,57.481,0,0,1,9.161,4.824,10.61,10.61,0,0,0,2.082,1.228,15.583,15.583,0,0,0,2.426.654,7.674,7.674,0,0,0,4.816-.369c.389-.207.737-.476,1.139-.66.355-.163.708-.329,1.063-.492q1.182-.542,2.385-1.034a47.345,47.345,0,0,1,4.859-1.695,25.452,25.452,0,0,1,5.091-1.01,7.8,7.8,0,0,1,4.615.788,8.264,8.264,0,0,1,2.839,3.417,12.389,12.389,0,0,1,1.266,4.657,18.549,18.549,0,0,1-2.153,9.443,32.652,32.652,0,0,1-2.484,4.165c-.472.679-.955,1.359-1.486,1.993a17.225,17.225,0,0,0-1.472,1.982,9.987,9.987,0,0,0-.949,2.351q-.393,1.25-.789,2.5a13.911,13.911,0,0,1-.868,2.383,12.761,12.761,0,0,1-1.325,1.914c-1.025,1.285-2.064,2.555-3.213,3.733a10.958,10.958,0,0,1-.983.91c-.133.107-.27.209-.411.3-.078.053-.25.122-.286.221-.042.115.058.352.079.464q.057.3.107.6.108.637.2,1.278a43.184,43.184,0,0,1,.168,10.486,30.924,30.924,0,0,1-2.516,9.558,23.618,23.618,0,0,1-2.448,4.18,22.016,22.016,0,0,1-1.464,1.786,14.484,14.484,0,0,1-1.778,1.73c-1.4,1.08-2.877,2.067-4.3,3.114s-2.824,2.1-4.218,3.17c-1.413,1.088-2.821,2.186-4.175,3.347-.653.56-1.307,1.129-1.906,1.748a16,16,0,0,0-1.491,1.922,20.083,20.083,0,0,0-3.519,9.147c-.1.834-.125,1.673-.262,2.5a13.058,13.058,0,0,1-.652,2.442,15.8,15.8,0,0,1-2.12,3.874,17.819,17.819,0,0,1-7.089,5.549S489.167,340.386,485.393,340.332Z" transform="translate(-348.859 -137.179)"/>
  <g id="_Group_3" data-name="&lt;Group&gt;">
    <path id="_Compound_Path_" data-name="&lt;Compound Path&gt;" class="cls-5" d="M470.552,260.363c1.009-1.441,4.323-.72,4.323-.72-5.187-1.009-7.781-6.772-7.781-6.772-4.323-.432-8.213-6.484-8.213-6.484-.72,3.026,5.475,8.776,5.475,8.776l.576,1.166a17.154,17.154,0,0,0-6.34-1.33c-4.034-.288-5.764,4-5.764,4h2.305c1.009,4,5.908,5.364,5.908,5.364l-1.729,2.538c9.942-6.628,15.561-4.422,15.561-4.422C474.3,261.471,470.552,260.363,470.552,260.363Zm-2.552.865a31.222,31.222,0,0,0-5.352,2.017s-5.249-1.009-5.1-5.043c0,0,2.457-2.449,10.457,2.161Z" transform="translate(-348.859 -137.179)"/>
    <path id="_Path_4" data-name="&lt;Path&gt;" class="cls-5" d="M462.844,257.625a1.935,1.935,0,0,0-1.073.323,1.253,1.253,0,0,1-.786,2.193,1.945,1.945,0,1,0,1.86-2.517Z" transform="translate(-348.859 -137.179)"/>
  </g>
  <g id="_Group_4" data-name="&lt;Group&gt;">
    <path id="_Compound_Path_2" data-name="&lt;Compound Path&gt;" class="cls-5" d="M493.75,262.542s5.619-2.143,15.561,4.485l-1.729-2.663s4.9-1.364,5.908-5.364H515.8s-1.729-4.29-5.764-4a15.915,15.915,0,0,0-6.34,1.205l.576-1.1s6.2-5.719,5.475-8.745c0,0-3.89,6.067-8.213,6.5,0,0-2.594,5.771-7.781,6.78,0,0,3.314-.717,4.323.724C498.073,260.359,494.327,261.534,493.75,262.542Zm7.25-2.179c7-4.611,10.244-2.161,10.244-2.161.144,4.034-4.96,5.043-4.96,5.043A32.262,32.262,0,0,0,501,261.227Z" transform="translate(-348.859 -137.179)"/>
    <path id="_Path_5" data-name="&lt;Path&gt;" class="cls-5" d="M505.782,257.625a1.935,1.935,0,0,1,1.073.323,1.253,1.253,0,0,0,.786,2.193,1.945,1.945,0,1,1-1.86-2.517Z" transform="translate(-348.859 -137.179)"/>
  </g>
  <g id="_Group_5" data-name="&lt;Group&gt;">
    <path id="_Path_6" data-name="&lt;Path&gt;" class="cls-5" d="M494.759,265.214s-1.46-.026-3.394-.207l-3.22-.3-1.747-.16-1.77-.125c-.582,0-1.174-.061-1.743-.054-.565.032-1.145-.042-1.68.021-.541.036-1.091.01-1.587.1a14.581,14.581,0,0,0-1.46.157c-.453.077-.889.138-1.292.184l-1.02.221c-.587.121-.971.166-.971.166a7.283,7.283,0,0,1,.529-.828c.187-.251.41-.577.708-.909.318-.3.7-.62,1.129-.964a8.193,8.193,0,0,1,1.517-.914,9.134,9.134,0,0,1,1.854-.706,10.819,10.819,0,0,1,2.075-.4,17.009,17.009,0,0,1,2.161-.063,19.385,19.385,0,0,1,2.113.285,13.727,13.727,0,0,1,1.969.544,13.119,13.119,0,0,1,1.747.734,14.766,14.766,0,0,1,1.469.842,11.739,11.739,0,0,1,1.971,1.625A5.592,5.592,0,0,1,494.759,265.214Z" transform="translate(-348.859 -137.179)"/>
  </g>
  <path id="_Path_7" data-name="&lt;Path&gt;" class="cls-5" d="M514.787,286.15l.432-2.966s21.285-4.853,32.976-4.179c0,0-22.746-2.157-33.409,1.752l-.432-2.561s23.158-6.336,33.841-5.122a83.524,83.524,0,0,0-34.849,3.1s-1.9-3.37-4.985-4.448c0,0,3.976,6.066-7.263,7.144,0,0,2.449,2.292,9.222,0,0,0,.779,6.056-3.861,5.252,0,0,6.743,4.049-4.208,5.4a52.306,52.306,0,0,1-7.781-.135s4.467,2.966,9.078,2.831c0,0-8.213,3.774-15.706-1.483l3.6-4.179a7.785,7.785,0,0,1-2.305-.809s7.312-2.561,5.313-8.425c0,0-1.162,1.853-2.17,1.988,0,0-4.439-2.19-7.609-.034-3.17-2.157-7.609.034-7.609.034-1.009-.135-2.17-1.988-2.17-1.988-2,5.864,5.313,8.425,5.313,8.425a7.785,7.785,0,0,1-2.305.809l3.6,4.179c-7.493,5.257-15.706,1.483-15.706,1.483,4.611.135,9.078-2.831,9.078-2.831a52.306,52.306,0,0,1-7.781.135c-10.951-1.348-4.208-5.4-4.208-5.4-4.64.8-3.861-5.252-3.861-5.252,6.772,2.292,9.222,0,9.222,0-11.239-1.078-7.263-7.144-7.263-7.144-3.084,1.078-4.985,4.448-4.985,4.448a83.524,83.524,0,0,0-34.849-3.1c10.682-1.213,33.841,5.122,33.841,5.122l-.432,2.561c-10.663-3.909-33.409-1.752-33.409-1.752,11.691-.674,32.976,4.179,32.976,4.179l.432,2.966c-13.688-5.257-34.149-.4-34.149-.4a100.972,100.972,0,0,1,34.869,3.37c5.908,11.727,19.6,9.3,19.6,9.3a31,31,0,0,0,4.467-1.382c5.331,1.213,5.295-.034,5.295-.034h.073s-.037,1.248,5.295.034a32.015,32.015,0,0,0,4.467,1.365s13.688,2.435,19.6-9.292a101.038,101.038,0,0,1,34.869-3.366S528.476,280.893,514.787,286.15Z" transform="translate(-348.859 -137.179)"/>
  <g id="_Group_6" data-name="&lt;Group&gt;">
    <path id="_Path_8" data-name="&lt;Path&gt;" class="cls-6" d="M470.636,298.876a18.653,18.653,0,0,0,2.71-.216l-2.686.181C470.652,298.851,470.644,298.865,470.636,298.876Z" transform="translate(-348.859 -137.179)"/>
    <path id="_Path_9" data-name="&lt;Path&gt;" class="cls-6" d="M466,298.841s.619,5.814,4.077,9.826c0,0-.66-8.147.6-9.791-1.634,0-3.68-.251-4.68-.961Z" transform="translate(-348.859 -137.179)"/>
    <path id="_Path_10" data-name="&lt;Path&gt;" class="cls-6" d="M498.471,298.875c1.263,1.642.523,9.792.523,9.792,3.458-4.012,4.005-9.826,4.005-9.826v-.926A9.047,9.047,0,0,1,498.471,298.875Z" transform="translate(-348.859 -137.179)"/>
    <path id="_Path_11" data-name="&lt;Path&gt;" class="cls-6" d="M495.661,298.648a18.413,18.413,0,0,0,2.868.227c-.008-.011-.015-.024-.024-.034Z" transform="translate(-348.859 -137.179)"/>
    <path id="_Path_12" data-name="&lt;Path&gt;" class="cls-6" d="M484.712,297.165l0-.051-.11.026-.108-.026,0,.05c-.836.184-3.862.764-5.221-.131a27.113,27.113,0,0,1-5.924,1.626l1.511-.1a6.167,6.167,0,0,0,1.45,4.171s.3-2.729.874-2.729h14.841c.576,0,.865,2.729.865,2.729a6.123,6.123,0,0,0,1.441-4.172l1.334.091a26.677,26.677,0,0,1-5.8-1.615C488.5,297.926,485.538,297.349,484.712,297.165Z" transform="translate(-348.859 -137.179)"/>
  </g>
  <path id="_Path_13" data-name="&lt;Path&gt;" class="cls-7" d="M484.84,319.5a34.908,34.908,0,0,1,5.21.258c.432.72.72,2.578,3.6,2.146,0,0,3.607.425,2.884-10.67a15.35,15.35,0,0,1-4.9,6.192,1.614,1.614,0,0,0-.576-1.192s.288,1.266-1.873,2.266h-9.844c-2.161-1-1.873-2.264-1.873-2.264a2.013,2.013,0,0,0-.576,1.428,15.22,15.22,0,0,1-4.9-6.3c-.723,11.095,2.884,10.622,2.884,10.622,2.882.432,3.17-1.476,3.6-2.2a30.886,30.886,0,0,1,5.187-.287Z" transform="translate(-348.859 -137.179)"/>
  <path id="_Path_14" data-name="&lt;Path&gt;" class="cls-5" d="M485.392,324.05a13.053,13.053,0,0,1,6.34,1.3s4.23,1.3,5.429,0c0,0,2.928-2.738,2.928-4.467,0,0,.121,4.467-1.669,7.348,0,0-3.518,5.772-13.028,6.772h-1.727c-9.51-1-13.028-6.772-13.028-6.772a14.5,14.5,0,0,1-1.669-6.988c0,1.729,2.928,4.287,2.928,4.287,1.2,1.3,5.429-.09,5.429-.09a13.417,13.417,0,0,1,6.34-1.342Z" transform="translate(-348.859 -137.179)"/>
  <path id="_Path_15" data-name="&lt;Path&gt;" class="cls-5" d="M448.16,253.728c-2.516-.642-1.729-1.786-.157-2.517a6.523,6.523,0,0,1,2.639-.674c1.539,0,1.263.637.813,1.553A2.99,2.99,0,0,1,448.16,253.728Z" transform="translate(-348.859 -137.179)"/>
  <path id="_Path_16" data-name="&lt;Path&gt;" class="cls-5" d="M448.616,259.981c-2.288-.091-1.823-1.228-.6-2.153a5.719,5.719,0,0,1,2.149-1.073c1.325-.288,1.207.319.989,1.2A2.631,2.631,0,0,1,448.616,259.981Z" transform="translate(-348.859 -137.179)"/>
  <path id="_Path_17" data-name="&lt;Path&gt;" class="cls-5" d="M475.561,242.294c-1.785-1.8-.469-2.736,1.283-2.874a5.113,5.113,0,0,1,2.631.386c1.315.659.718,1.254-.181,2.082C478.339,242.766,476.758,243.361,475.561,242.294Z" transform="translate(-348.859 -137.179)"/>
  <path id="_Path_18" data-name="&lt;Path&gt;" class="cls-5" d="M490.546,242.294c-1.785-1.8-.469-2.736,1.283-2.874a5.113,5.113,0,0,1,2.631.386c1.315.659.718,1.254-.181,2.082C493.324,242.766,491.743,243.361,490.546,242.294Z" transform="translate(-348.859 -137.179)"/>
  <path id="_Path_19" data-name="&lt;Path&gt;" class="cls-5" d="M483.334,238.384c-1.236-1.927-.037-2.2,1.419-1.728a5.719,5.719,0,0,1,2.11,1.147c1,.921.43,1.172-.414,1.5A2.631,2.631,0,0,1,483.334,238.384Z" transform="translate(-348.859 -137.179)"/>
  <path id="_Path_20" data-name="&lt;Path&gt;" class="cls-5" d="M443.026,266.031c-.558,2.487.8,2.312,2.143,1.266a6.367,6.367,0,0,0,1.769-2c.69-1.343,0-1.389-1-1.407A2.928,2.928,0,0,0,443.026,266.031Z" transform="translate(-348.859 -137.179)"/>
  <path id="_Path_21" data-name="&lt;Path&gt;" class="cls-5" d="M451.163,266.267c-1.222,2.8.4,2.884,2.206,1.944a7.726,7.726,0,0,0,2.523-1.973c1.113-1.428.323-1.629-.846-1.865A3.524,3.524,0,0,0,451.163,266.267Z" transform="translate(-348.859 -137.179)"/>
  <path id="_Path_22" data-name="&lt;Path&gt;" class="cls-5" d="M478.739,258.828c-2.288-.091-1.823-1.228-.6-2.153a5.719,5.719,0,0,1,2.149-1.073c1.325-.288,1.207.319.989,1.2A2.631,2.631,0,0,1,478.739,258.828Z" transform="translate(-348.859 -137.179)"/>
  <path id="_Path_23" data-name="&lt;Path&gt;" class="cls-5" d="M490.318,258.828c2.288-.091,1.823-1.228.6-2.153a5.719,5.719,0,0,0-2.149-1.073c-1.325-.288-1.207.319-.989,1.2A2.631,2.631,0,0,0,490.318,258.828Z" transform="translate(-348.859 -137.179)"/>
  <path id="_Path_24" data-name="&lt;Path&gt;" class="cls-5" d="M447.744,245.9c3.112-.79,3.093,1.079,1.952,2.936a7.213,7.213,0,0,1-2.308,2.452c-1.622.961-1.785.017-1.96-1.368A3.574,3.574,0,0,1,447.744,245.9Z" transform="translate(-348.859 -137.179)"/>
  <path id="_Path_25" data-name="&lt;Path&gt;" class="cls-5" d="M513.088,241.4c-2.988-.431-2.557,1.015-1.114,2.387a8.373,8.373,0,0,0,2.63,1.764c1.679.65,1.617-.091,1.469-1.173A3.615,3.615,0,0,0,513.088,241.4Z" transform="translate(-348.859 -137.179)"/>
  <path id="_Path_26" data-name="&lt;Path&gt;" class="cls-5" d="M455.375,243.826c2.943-.34,2.417.96.909,2.176a8.96,8.96,0,0,1-2.693,1.551c-1.684.56-1.569-.109-1.345-1.084A3.7,3.7,0,0,1,455.375,243.826Z" transform="translate(-348.859 -137.179)"/>
  <path id="_Path_27" data-name="&lt;Path&gt;" class="cls-5" d="M464.6,234.126c3.943-.67,3.1.733.971,2.155a16.112,16.112,0,0,1-3.742,1.9c-2.3.761-2.071.057-1.667-.978A5.921,5.921,0,0,1,464.6,234.126Z" transform="translate(-348.859 -137.179)"/>
  <path id="_Path_28" data-name="&lt;Path&gt;" class="cls-5" d="M504.074,233.838c-3.943-.67-3.1.733-.971,2.155a16.112,16.112,0,0,0,3.742,1.9c2.3.761,2.071.057,1.667-.978A5.921,5.921,0,0,0,504.074,233.838Z" transform="translate(-348.859 -137.179)"/>
  <path id="_Path_29" data-name="&lt;Path&gt;" class="cls-5" d="M469.149,241.627c2.9-2.752,1.276-2.922-1.141-2.07a16.112,16.112,0,0,0-3.764,1.854c-1.987,1.379-1.288,1.622-.219,1.921A5.921,5.921,0,0,0,469.149,241.627Z" transform="translate(-348.859 -137.179)"/>
  <path id="_Path_30" data-name="&lt;Path&gt;" class="cls-5" d="M499.241,241.627c-2.9-2.752-1.276-2.922,1.141-2.07a16.112,16.112,0,0,1,3.764,1.854c1.987,1.379,1.288,1.622.219,1.921A5.921,5.921,0,0,1,499.241,241.627Z" transform="translate(-348.859 -137.179)"/>
  <path id="_Path_31" data-name="&lt;Path&gt;" class="cls-5" d="M470.15,248.336c1.693-2.886.111-2.932-1.832-1.927a10.133,10.133,0,0,0-2.829,2.078c-1.345,1.486-.6,1.671.506,1.882A4.176,4.176,0,0,0,470.15,248.336Z" transform="translate(-348.859 -137.179)"/>
  <path id="_Path_32" data-name="&lt;Path&gt;" class="cls-5" d="M499.2,247.76c-1.693-2.886-.111-2.932,1.832-1.927a10.133,10.133,0,0,1,2.829,2.078c1.345,1.486.6,1.671-.506,1.882A4.176,4.176,0,0,1,499.2,247.76Z" transform="translate(-348.859 -137.179)"/>
  <path id="_Path_33" data-name="&lt;Path&gt;" class="cls-5" d="M478.122,249.484s.716,4.295-3.247,4.309c0,0-1.657-.648-1.225-2.154,0,0,.36-3.206,3.242-3.221C476.892,248.418,478.075,248.546,478.122,249.484Z" transform="translate(-348.859 -137.179)"/>
  <path id="_Path_34" data-name="&lt;Path&gt;" class="cls-5" d="M490.343,249.484s-.716,4.295,3.247,4.309c0,0,1.657-.648,1.225-2.154,0,0-.36-3.206-3.242-3.221C491.572,248.418,490.39,248.546,490.343,249.484Z" transform="translate(-348.859 -137.179)"/>
  <path id="_Path_35" data-name="&lt;Path&gt;" class="cls-5" d="M486.767,246.026s.716,4.295-3.247,4.309c0,0-1.657-.648-1.225-2.154,0,0,.36-3.206,3.242-3.221C485.537,244.96,486.72,245.088,486.767,246.026Z" transform="translate(-348.859 -137.179)"/>
  <path id="_Path_36" data-name="&lt;Path&gt;" class="cls-5" d="M473.779,234.045c-2.156-3.095-.269-3.48,2.1-2.685a10.126,10.126,0,0,1,3.475,1.891c1.676,1.494.8,1.87-.517,2.354A4.454,4.454,0,0,1,473.779,234.045Z" transform="translate(-348.859 -137.179)"/>
  <path id="_Path_37" data-name="&lt;Path&gt;" class="cls-5" d="M495.278,234.045c2.156-3.095.269-3.48-2.1-2.685a10.126,10.126,0,0,0-3.475,1.891c-1.676,1.494-.8,1.87.517,2.354A4.454,4.454,0,0,0,495.278,234.045Z" transform="translate(-348.859 -137.179)"/>
  <path id="_Path_38" data-name="&lt;Path&gt;" class="cls-5" d="M462.263,269.311c-1.766-.3-1.331-1.248-.326-1.933a4.04,4.04,0,0,1,1.735-.723c1.046-.121.914.4.687,1.138A2,2,0,0,1,462.263,269.311Z" transform="translate(-348.859 -137.179)"/>
  <path id="_Path_39" data-name="&lt;Path&gt;" class="cls-5" d="M466.958,270.827c-1.582-.215-1.179-.962-.268-1.513a4.045,4.045,0,0,1,1.568-.59c.941-.108.815.3.6.884A1.844,1.844,0,0,1,466.958,270.827Z" transform="translate(-348.859 -137.179)"/>
  <path id="_Path_40" data-name="&lt;Path&gt;" class="cls-5" d="M470.726,265.028c-1.549-.388-1.066-1.086-.1-1.533a4.045,4.045,0,0,1,1.623-.413c.947,0,.778.387.5.945A1.844,1.844,0,0,1,470.726,265.028Z" transform="translate(-348.859 -137.179)"/>
  <path id="_Path_41" data-name="&lt;Path&gt;" class="cls-5" d="M458.647,299.1s-3.312.661-3.271-3.24c0,0,.52-1.624,1.673-1.184a3.04,3.04,0,0,1,2.435,3.224S459.369,299.066,458.647,299.1Z" transform="translate(-348.859 -137.179)"/>
  <path id="_Path_42" data-name="&lt;Path&gt;" class="cls-5" d="M448.422,290.454s4.437.646,4.4-3.255a1.942,1.942,0,0,0-2.237-1.176s-3.3.4-3.278,3.235C447.307,289.258,447.454,290.42,448.422,290.454Z" transform="translate(-348.859 -137.179)"/>
  <path id="_Path_43" data-name="&lt;Path&gt;" class="cls-5" d="M452.01,295.685c.265,2.331-1.268,2.3-2.653,1.423a4.6,4.6,0,0,1-1.73-1.751c-.589-1.222.207-1.332,1.366-1.447C450.221,293.788,451.75,294.225,452.01,295.685Z" transform="translate(-348.859 -137.179)"/>
  <path id="_Path_44" data-name="&lt;Path&gt;" class="cls-5" d="M511.83,300.832s3.312.661,3.271-3.24c0,0-.52-1.624-1.673-1.184a3.04,3.04,0,0,0-2.435,3.224S511.108,300.8,511.83,300.832Z" transform="translate(-348.859 -137.179)"/>
  <path id="_Path_45" data-name="&lt;Path&gt;" class="cls-5" d="M524.072,292.759s-4.437.646-4.4-3.255a1.942,1.942,0,0,1,2.237-1.176s3.3.4,3.278,3.235C525.187,291.564,525.04,292.726,524.072,292.759Z" transform="translate(-348.859 -137.179)"/>
  <path id="_Path_46" data-name="&lt;Path&gt;" class="cls-5" d="M513.171,292.192c.235,1.98,1.773,1.854,2.982,1.031a3.3,3.3,0,0,0,1.367-1.584c.331-1.066-.5-1.109-1.689-1.133C514.565,290.481,513.118,290.946,513.171,292.192Z" transform="translate(-348.859 -137.179)"/>
  <path id="_Path_47" data-name="&lt;Path&gt;" class="cls-5" d="M515.429,252.459c2.516-.61,1.729-1.7.157-2.391a6.8,6.8,0,0,0-2.639-.64c-1.539,0-1.263.605-.813,1.476A3.03,3.03,0,0,0,515.429,252.459Z" transform="translate(-348.859 -137.179)"/>
  <path id="_Path_48" data-name="&lt;Path&gt;" class="cls-5" d="M525.6,265.115c.558,2.363-.8,2.2-2.143,1.2a6.16,6.16,0,0,1-1.769-1.9c-.69-1.276,0-1.32,1-1.337A2.921,2.921,0,0,1,525.6,265.115Z" transform="translate(-348.859 -137.179)"/>
  <path id="_Path_49" data-name="&lt;Path&gt;" class="cls-5" d="M519.2,266.712c1.346,2.6-.271,2.756-2.117,1.949a7.684,7.684,0,0,1-2.608-1.754c-1.175-1.3-.4-1.531.762-1.81A3.588,3.588,0,0,1,519.2,266.712Z" transform="translate(-348.859 -137.179)"/>
  <path id="_Path_50" data-name="&lt;Path&gt;" class="cls-5" d="M507.46,269.577c1.735-.3,1.307-1.226.32-1.9a3.969,3.969,0,0,0-1.7-.71c-1.027-.119-.9.389-.675,1.118A1.961,1.961,0,0,0,507.46,269.577Z" transform="translate(-348.859 -137.179)"/>
  <path id="_Path_51" data-name="&lt;Path&gt;" class="cls-5" d="M498.371,265.584c1.593-.276,1.2-1.132.3-1.753a3.627,3.627,0,0,0-1.564-.654c-.943-.109-.824.359-.621,1.033A1.8,1.8,0,0,0,498.371,265.584Z" transform="translate(-348.859 -137.179)"/>
  <path id="_Path_52" data-name="&lt;Path&gt;" class="cls-5" d="M499.476,270.325c1.522-.381,1.047-1.067.1-1.506a3.974,3.974,0,0,0-1.595-.406c-.93,0-.764.38-.493.929A1.812,1.812,0,0,0,499.476,270.325Z" transform="translate(-348.859 -137.179)"/>
  <path id="_Path_53" data-name="&lt;Path&gt;" class="cls-7" d="M433.753,244.395s-2.14-5.316-6.489-4.277c0,0,2.216-5.33,9.027,2.035,0,0,3.936,4.359,8.751,5.478A33.215,33.215,0,0,0,439.7,256.6a12.754,12.754,0,0,1,.4-6.631,15.275,15.275,0,0,1-9.8-5.407A8.815,8.815,0,0,0,433.753,244.395Z" transform="translate(-348.859 -137.179)"/>
  <g id="_Group_7" data-name="&lt;Group&gt;">
    <path id="_Path_54" data-name="&lt;Path&gt;" class="cls-8" d="M447.874,250.047s-7.4-.17-9.034,17.763c0,0-2.943-.792-5.418-8.812,0,0-.542-3.393-5.58-7.336,0,0-5.241-8.185-2.5-12.049,0,0,5.846-4.052,14.738,7.323C440.077,246.936,441.65,249.444,447.874,250.047Z" transform="translate(-348.859 -137.179)"/>
  </g>
  <g id="_Group_8" data-name="&lt;Group&gt;">
    <path id="_Path_55" data-name="&lt;Path&gt;" class="cls-5" d="M521.2,253.728c2.516-.642,1.729-1.786.157-2.517a6.523,6.523,0,0,0-2.639-.674c-1.539,0-1.263.637-.813,1.553A2.99,2.99,0,0,0,521.2,253.728Z" transform="translate(-348.859 -137.179)"/>
    <path id="_Path_56" data-name="&lt;Path&gt;" class="cls-5" d="M521.612,245.9c-3.112-.79-3.093,1.079-1.952,2.936a7.213,7.213,0,0,0,2.308,2.452c1.622.961,1.785.017,1.96-1.368A3.574,3.574,0,0,0,521.612,245.9Z" transform="translate(-348.859 -137.179)"/>
    <path id="_Path_57" data-name="&lt;Path&gt;" class="cls-7" d="M535.6,244.395s2.14-5.316,6.489-4.277c0,0-2.216-5.33-9.027,2.035,0,0-3.936,4.359-8.751,5.478a33.215,33.215,0,0,1,5.345,8.971,12.754,12.754,0,0,0-.4-6.631,15.275,15.275,0,0,0,9.8-5.407A8.815,8.815,0,0,1,535.6,244.395Z" transform="translate(-348.859 -137.179)"/>
    <g id="_Group_9" data-name="&lt;Group&gt;">
      <path id="_Path_58" data-name="&lt;Path&gt;" class="cls-8" d="M521.482,250.047s7.4-.17,9.034,17.763c0,0,2.943-.792,5.418-8.812,0,0,.542-3.393,5.58-7.336,0,0,5.241-8.185,2.5-12.049,0,0-5.846-4.052-14.738,7.323C529.279,246.936,527.706,249.444,521.482,250.047Z" transform="translate(-348.859 -137.179)"/>
    </g>
  </g>
  <path id="_Path_59" data-name="&lt;Path&gt;" class="cls-5" d="M520.667,259.981c2.288-.091,1.823-1.228.6-2.153a5.719,5.719,0,0,0-2.149-1.073c-1.325-.288-1.207.319-.989,1.2A2.631,2.631,0,0,0,520.667,259.981Z" transform="translate(-348.859 -137.179)"/>
</svg>
